<?xml version="1.0" standalone="no"?>
<svg viewBox="-395 -150 1500 1500" xmlns="http://www.w3.org/2000/svg" style="width: 585px; height: 585px; justify-content: center; align-self: center; transform: scale(1, 1);"><g transform="rotate(0 348.4207305908203 607.0001411437988)"><g transform="translate(0 459)"><path d="M775.898 68.6694C760.379 7.48967 686.815 -3.14589 633.159 0.69637C616.289 5.1391 615.152 15.9766 613.771 29.1472C613.296 33.6753 612.793 38.4792 611.611 43.3938C606.99 62.6031 592.008 83.5037 562.905 101.07C563.776 99.044 536.193 102.393 535.209 115.513C488.786 133.715 437.665 134.573 392.365 156.383C348.063 179.097 310.074 212.153 269.202 240.28L110.794 354.916C106.996 357.665 105.078 362.026 105.219 366.175C67.3151 394.016 37.0616 431.092 10.3302 469.537L8.62864 471.992C3.64464 476.016 -1.54236 484.474 0.428643 490.376C1.50936 510.007 16.2761 525.544 27.4013 540.747L28.1456 541.772C63.8916 590.33 103.137 636.296 145.296 679.388C166.408 699.191 185.018 726.529 215.901 729.888C247.61 732.377 279.675 728.252 311.141 723.669L320.887 722.239C329.067 720.871 331.382 709.123 325.73 703.869C259.354 642.286 199.515 573.312 148.385 498.559C148.907 498.186 149.485 497.769 149.998 497.398L151.306 496.446C158.396 491.39 171.217 482.087 178.834 476.629L182.374 474.101C189.088 469.335 196.678 464.84 201.792 458.32C223.742 424.846 169.874 375.032 141.541 361.985C214.758 309.422 287.197 255.743 360.676 203.555C378.695 190.917 397.499 178.829 418.236 171.169C456.471 157.102 498.067 154.155 536.279 140.238C554.417 266.455 907.254 244.699 806.126 115.263C790.194 100.703 780.711 90.9319 775.898 68.6694ZM914.779 320.144C914.053 315.54 907.996 310.788 903.28 311.376C846.677 318.456 789.395 318.748 732.723 312.249C724.595 311.316 719.649 320.604 721.203 327.391L728.252 358.163L728.473 359.148C730.288 367.397 731.444 376.651 734.581 384.652C733.69 392.63 731.782 400.922 729.852 409.308C724.602 432.131 719.19 455.654 733.653 475.465C764.568 506.775 816.832 523.336 858.857 506.59C871.957 501.009 883.368 491.829 890.911 479.649C898.303 467.714 901.615 453.829 904.578 440.213L906.057 433.377C914.093 396.043 920.795 358.31 914.779 320.144ZM1024.89 412.266C1073.87 338.565 1120.56 420.109 1140.95 469.256C1163.72 532.805 1120.43 610.17 1088.4 667.419C1086.53 670.761 1084.7 674.034 1082.92 677.231C1071.05 693.333 1055.43 727.297 1034.51 729.759C981.787 729.544 928.994 725.832 876.242 724.726C842.18 716.276 889.97 665.089 922.982 683.785C932.984 687.527 937.981 698.883 947.734 702.526C950.965 703.215 951.461 701.968 952.611 699.076C952.726 698.787 952.847 698.482 952.978 698.161L953.183 697.666C955.76 691.543 958.259 685.386 960.797 679.247C982.274 626.357 1004.98 573.934 1027.56 521.533C1032.38 510.156 1025.61 500.783 1016.82 494.011C1014.98 492.5 1011.5 490.394 1007.95 488.251C998.481 482.539 988.584 476.565 1008.42 480.895C997.914 456.522 1010.53 431.783 1024.89 412.266Z" transform="translate(-224 -30.00002)" fill="#FFFFFF" fill-rule="evenodd" stroke="none"></path><path d="M630.857 0.303104C630.797 -0.115896 630.137 -0.0858957 630.047 0.303104C626.227 16.9141 620.537 32.8141 609.667 46.2741C604.407 52.7741 598.157 58.6751 591.097 63.1641C584.027 67.6641 576.557 68.9341 568.987 71.5941C567.537 70.3941 565.907 69.4441 564.347 68.7941C560.567 67.2341 555.747 67.7441 551.907 69.2041C536.427 69.5641 520.887 71.9841 505.707 74.8031C488.817 77.9341 471.997 81.3941 455.247 85.1941C438.517 88.9941 421.877 93.2551 405.327 97.7841L404.345 98.051C389.59 102.037 373.489 105.291 360.097 112.814C354.405 116.011 349.294 120.157 344.288 124.349L334.52 132.55L314.546 149.359C303.305 158.809 292.034 168.232 280.867 177.774C254.087 200.664 227.367 223.614 200.497 246.404C185.537 259.094 170.577 271.784 155.617 284.464C148.267 290.704 140.917 296.944 133.567 303.175C125.747 309.803 117.437 316.133 110.227 323.414C107.587 326.074 108.347 330.264 111.357 332.224C112.347 332.864 113.317 333.524 114.287 334.214C103.507 341.633 93.427 349.644 83.757 358.734C71.447 370.284 59.387 382.184 47.857 394.524C36.367 406.824 24.977 419.244 13.787 431.814L13.3302 432.329C8.4623 437.828 3.78308 443.674 1.41702 450.714C-1.16298 458.374 -0.00273869 466.244 3.14702 473.514C9.15701 487.335 18.747 500.224 27.037 512.755C35.587 525.664 44.507 538.294 53.817 550.664C72.917 576.014 93.297 600.714 115.787 623.144C140.287 647.585 166.917 670.344 195.907 689.294C202.797 693.794 209.227 682.734 202.347 678.284C152.707 646.184 111.107 602.425 74.637 556.255C56.427 533.204 39.427 509.114 23.557 484.394L23.1705 483.795C19.2835 477.794 14.7738 471.632 12.877 464.684C10.9112 457.476 13.9226 451.197 18.1531 445.523L18.637 444.883C28.327 432.244 39.747 420.633 50.407 408.803L55.5238 403.128C65.7599 391.776 76.0284 380.441 86.657 369.444C93.057 362.835 99.487 356.224 106.007 349.744C109.319 346.448 112.452 342.966 115.554 339.458L117.877 336.824C125.298 342.437 132.25 348.987 138.937 355.444L143.357 359.724C153.197 369.264 162.497 379.335 171.257 389.883C182.907 403.904 193.347 418.744 202.867 434.184C202.487 434.474 202.117 434.764 201.737 435.064C201.407 435.324 201.117 435.624 200.877 435.944C192.906 440.044 185.552 445.369 178.237 450.557L176.147 452.034C170.297 456.144 164.457 460.274 158.727 464.553C158.521 464.707 158.314 464.862 158.105 465.019C153.516 468.445 148.28 472.355 149.887 478.734C150.577 481.484 154.037 483.794 156.857 482.694C158.507 482.053 159.637 481.204 160.637 480.194C163.239 486.898 167.53 493.439 171.565 499.261L172.527 500.644C177.127 507.244 181.932 513.697 186.762 520.13L190.387 524.954C201.067 539.175 211.967 553.303 223.197 567.094C245.387 594.344 269.087 620.494 295.427 643.803C310.457 657.114 326.107 669.764 342.647 681.154C351.387 687.184 359.777 672.814 350.977 666.914C295.299 629.589 251.853 576.964 208.846 526.18L202.765 519.009C196.482 511.616 190.148 504.251 183.587 497.114C177.477 490.464 170.657 482.814 162.867 477.774C162.904 477.727 162.944 477.68 162.986 477.633L163.247 477.344C165.047 475.374 167.297 473.744 169.337 472.034C174.477 467.734 179.657 463.474 184.857 459.234C189.647 455.335 194.517 451.484 199.047 447.284C202.777 452.284 208.077 456.374 213.347 459.694L213.857 460.018C214.197 460.231 214.537 460.438 214.877 460.644C216.557 461.654 218.267 461.874 219.807 461.514L219.817 461.514L220.036 461.59C221.723 462.126 223.626 461.552 224.987 460.344C239.957 456.024 254.027 447.714 268.037 441.064C283.387 433.784 298.917 426.844 314.527 420.154C343.387 407.784 373.007 396.255 403.087 387.064C414.297 459.604 417.137 532.505 412.277 605.784C410.877 626.724 409.507 647.675 407.067 668.524C405.877 669.724 404.737 670.954 403.907 672.335C401.037 677.124 402.097 683.064 406.857 686.303C411.469 689.445 418.01 689.437 423.84 689.43C425.305 689.428 426.724 689.426 428.057 689.474L431.4 689.585C436.973 689.749 442.555 689.816 448.134 689.871L461.335 689.994C489.538 690.21 517.747 689.9 545.95 689.502L581.316 688.99C643.898 688.097 706.521 687.466 769.047 690.755C788.377 691.764 807.647 693.374 826.927 695.074C846.017 696.755 865.207 697.954 884.277 695.414C890.627 694.564 892.697 689.133 891.177 684.974C897.527 686.774 904.517 686.744 911.027 687.244L912.53 687.356C919.532 687.855 926.358 688 933.237 686.133C935.107 685.624 935.797 682.574 933.817 681.684C924.397 677.444 914.297 677.164 904.167 676.324L901.53 676.108C899.77 675.956 898.01 675.767 896.277 675.414C896.02 675.363 895.345 675.119 894.522 674.807L892.537 674.044C892.827 673.694 893.117 673.335 893.397 673.053C895.027 671.434 896.737 669.944 898.627 668.624C907.727 662.294 918.237 660.264 928.347 661.925C929.617 663.654 931.377 665.014 933.417 665.574C935.297 666.094 937.337 665.904 939.207 665.194C942.767 666.784 946.177 668.854 949.347 671.374C949.847 671.774 950.687 671.274 950.297 670.633C948.367 667.474 946.067 664.714 943.487 662.364C945.647 660.074 946.687 656.904 945.347 653.644C943.587 649.364 941.057 643.883 936.657 641.714C936.777 640.449 936.673 639.115 936.514 637.736L936.387 636.694C935.837 632.194 935.367 627.684 934.917 623.164C934.007 614.144 933.347 605.104 932.947 596.053C932.137 577.934 932.447 559.803 933.137 541.694C934.547 504.974 938.957 468.414 944.417 432.104C944.807 429.524 945.197 426.934 945.577 424.354C945.617 425.085 945.827 425.835 946.167 426.633C947.907 430.764 951.737 434.844 954.597 438.284C960.284 445.095 967.132 450.305 974.196 455.462L978.048 458.264C981.316 460.648 984.514 463.145 987.277 466.104C990.087 469.114 991.407 472.744 993.627 476.104C996.097 479.864 999.727 482.414 1004.35 482.294C1008.01 482.196 1011.58 480.272 1014.9 478.245L1018.01 476.324C1019.64 477.814 1021.95 478.494 1024.74 477.553C1026.34 477.014 1027.94 476.464 1029.54 475.894C1030.77 478.784 1034.59 483.61 1035.51 484.589L1035.63 484.704C1037.97 486.914 1040.63 488.784 1043.47 490.324C1043.26 490.344 1043.05 490.425 1042.9 490.585C1031.33 502.216 1024.76 519.093 1018.4 534.102L1017.73 535.675C1011.6 550.024 1005.87 564.548 1000.2 579.085L994.427 593.922C988.6 608.889 982.802 623.87 977.567 639.053C974.557 647.794 971.657 656.564 968.697 665.324C965.787 673.954 961.977 682.755 959.957 691.624C958.417 698.383 968.017 703.094 971.537 696.514C975.817 688.524 978.687 679.464 982.137 671.074C985.667 662.484 989.207 653.883 992.727 645.284C998.423 631.349 1003.58 617.197 1008.67 603.026L1013.62 589.212C1019.36 573.204 1025.08 557.176 1030.34 540.994C1033.1 532.494 1035.78 523.994 1038.44 515.474L1039.74 511.302C1041.81 504.718 1043.76 498.204 1044.66 491.314C1044.68 491.175 1044.66 491.044 1044.62 490.934C1045.87 491.564 1047.16 492.133 1048.46 492.644C1053.73 494.704 1059.26 495.744 1064.87 496.364L1065.23 496.404C1065.71 496.459 1066.2 496.516 1066.69 496.574C1072.29 497.235 1078.08 497.919 1082.65 494.194C1084.78 492.464 1084.72 488.303 1082.65 486.574C1078.84 483.378 1073.93 483.408 1069.06 483.437C1067.33 483.448 1065.61 483.458 1063.94 483.324C1057.97 482.835 1052.08 481.614 1046.56 479.255C1042.97 477.714 1040.14 475.294 1037.13 473.053C1061.78 463.374 1085.08 449.314 1099.87 426.734C1109.26 412.373 1112.33 396.288 1114.11 379.541L1114.29 377.864C1115.22 368.734 1115.35 360.335 1110.58 352.154C1105.6 343.594 1099.34 335.585 1093.79 327.374C1070.84 293.454 1048.02 259.454 1025.2 225.454C1013.9 208.604 1003.13 191.364 991.697 174.604C986.697 167.274 981.377 159.454 974.527 153.734C967.797 148.114 960.127 144.044 952.387 140.014L948.43 137.961C929.958 128.39 911.402 119.002 892.567 110.154C888.787 108.374 884.767 106.364 880.577 104.364C873.677 100.194 865.347 97.3841 857.977 94.3241L856.488 93.7091C849.03 90.6444 841.401 87.7435 833.667 85.4841C827.897 83.7941 821.007 84.4841 818.037 89.6141C812.997 85.9341 808.587 81.5531 804.517 76.7841C799.587 71.0241 795.477 64.4441 792.367 57.5241C790.757 53.9541 789.537 50.2041 788.457 46.4341C787.527 43.1941 787.237 39.7741 785.727 36.7441C785.387 36.0641 784.187 36.0141 783.867 36.7441C781.066 43.0797 782.815 51.9512 784.555 58.6576L784.887 59.9141C787.137 68.3241 791.037 76.2041 796.197 83.2041C801.147 89.9251 807.447 95.6751 814.317 100.384C811.027 110.484 808.317 120.734 804.357 130.664C800.327 140.794 795.867 151.585 787.767 159.175C773.757 172.309 750.71 172.376 731.85 172.43C730.418 172.434 729.009 172.438 727.631 172.448L724.491 172.477C680.039 172.835 632.706 165.357 598.997 133.894C590.567 126.024 583.897 117.034 578.297 106.984C575.167 101.364 572.287 95.5941 569.077 90.0241C567.997 88.1541 566.937 86.2841 565.787 84.5051C566.067 84.6641 566.367 84.8031 566.687 84.9251C576.895 88.9119 588.007 82.9751 596.23 76.8273L596.857 76.3541C604.907 70.2141 611.737 62.5741 617.277 54.1141C627.427 38.6241 633.657 18.9251 630.857 0.303104ZM862.481 306.961C879.511 306.847 896.558 306.732 913.517 305.564C913.547 306.294 913.567 307.014 913.587 307.744C905.857 306.624 897.507 308.344 890.257 310.904C882.657 313.585 874.997 316.904 866.867 317.494C859.277 318.044 852.377 315.494 845.597 312.374L842.73 311.059C839.859 309.748 836.98 308.46 834.077 307.335C834.197 307.335 834.317 307.324 834.437 307.324L837.474 307.253C845.797 307.073 854.137 307.017 862.481 306.961ZM799.497 308.534C797.627 308.604 795.757 308.684 793.887 308.764C786.967 309.064 780.047 309.404 773.127 309.794C771.788 309.867 770.363 310.034 768.902 310.205C765.137 310.646 761.133 311.116 757.747 310.064C757.627 310.544 757.467 311.005 757.257 311.454C757.967 314.994 758.407 318.654 758.677 322.354C763.017 322.824 767.427 322.664 771.707 321.774C781.977 319.644 790.317 313.164 799.497 308.534ZM874.797 324.534C887.467 321.244 900.447 312.614 913.717 312.154C913.977 320.794 914.167 329.434 914.217 338.053C909.687 334.434 903.067 333.104 897.067 334.154C891.351 335.149 885.85 338.302 880.34 341.46C872.067 346.201 863.773 350.955 854.697 348.434C847.957 346.553 842.387 341.704 836.627 337.954C830.867 334.204 824.277 331.133 817.307 330.854C810.827 330.585 805.047 333.394 800.617 338.014C795.797 343.044 792.497 349.154 785.477 351.434C778.211 353.785 771.93 351.281 765.836 347.471L765.147 347.034C763.227 345.794 761.207 344.434 759.107 343.234C759.104 342.116 759.105 340.991 759.105 339.857L759.105 339.848C759.106 337.022 759.107 334.165 759.057 331.303C771.839 332.367 782.987 328.1 793.935 321.867L795.087 321.204C801.097 317.704 807.277 313.835 814.267 312.694C821.437 311.534 828.387 314.085 834.857 316.925L836.484 317.642C849.092 323.2 860.644 328.207 874.797 324.534ZM827.757 343.574C823.987 341.585 819.397 339.734 815.037 340.314C810.877 340.863 808.105 343.685 805.543 346.701L804.156 348.353C799.573 353.774 795.062 358.333 787.997 360.564C780.677 362.864 772.917 361.964 766.107 358.594C763.687 357.394 761.437 355.904 759.177 354.434L759.297 370.383C763.817 372.633 768.417 374.664 773.467 375.894C782.787 378.164 790.707 376.484 798.677 371.344L799.514 370.799C805.517 366.857 811.672 362.164 819.087 361.724C826.323 361.291 831.754 365.303 836.519 370.213L837.077 370.794C843.087 377.133 849.157 380.224 858.097 379.494C866.764 378.786 874.876 374.959 882.816 371.662L883.537 371.364C890.797 368.383 899.167 365.314 907.137 366.454C909.047 366.724 911.517 367.314 913.717 368.344C914.037 360.883 914.187 353.414 914.217 345.934C909.687 342.005 902.637 341.354 896.967 342.964C888.087 345.484 880.817 351.984 872.337 355.514C864.817 358.644 856.977 359.344 849.307 356.383C841.387 353.324 835.177 347.494 827.757 343.574ZM812.507 374.074C815.287 372.524 818.517 371.014 821.787 371.644C825.171 372.301 827.615 374.975 829.9 377.406L830.657 378.204C835.867 383.604 841.527 387.544 849.067 388.755C857.207 390.064 865.657 388.544 873.287 385.624C881.337 382.553 888.907 378.274 897.037 375.404C900.757 374.094 904.947 372.835 908.937 372.854C910.607 372.864 912.057 373.244 913.457 373.764C913.067 381.335 912.487 388.894 911.687 396.454C901.513 391.127 888.283 396.456 878.091 401.138L876.217 402.005C868.167 405.744 860.337 408.564 851.327 407.734C842.806 406.95 836.201 402.934 829.39 398.313L827.597 397.089C821.639 393.051 814.67 389.498 807.277 391.324C800.047 393.104 794.517 398.803 787.307 400.914C780.237 402.984 772.627 403.204 765.447 401.564C763.427 401.094 761.447 400.505 759.517 399.774C759.467 393.704 759.417 387.633 759.377 381.564C769.637 385.914 780.937 388.204 791.267 385.544C799.297 383.474 805.417 378.005 812.507 374.074ZM1114.2 379.624C1114.03 378.865 1114.94 378.284 1115.53 378.855C1125.5 388.464 1132.54 400.744 1140.27 412.124C1147.63 422.964 1155.64 433.384 1161.13 445.345C1166.23 456.464 1169.52 467.744 1170.5 479.964C1171.48 492.095 1170.21 504.255 1168.07 516.204C1163.86 539.744 1154.86 562.034 1144.98 583.685C1135.37 604.732 1124.52 625.18 1113.06 645.256L1108.95 652.424C1103.94 661.15 1098.87 669.861 1093.45 678.315C1086.7 688.835 1080.54 699.695 1071.64 708.475C1065.32 714.725 1053.41 708.475 1056.29 699.544C1057.54 695.655 1058.52 691.994 1060.46 688.384C1061.93 685.634 1063.59 682.964 1065.15 680.255C1068.27 674.835 1071.36 669.395 1074.48 663.975C1081.03 652.585 1087.93 641.405 1094.42 629.975C1105.68 610.155 1116.31 589.964 1125.71 569.185L1126.81 566.732C1135.46 547.49 1143.66 527.559 1147.46 506.744C1151.46 484.815 1147.88 464.145 1140.09 443.534C1136.06 432.874 1131.53 422.454 1126.82 412.074L1125.91 410.091C1121.36 400.184 1116.54 390.33 1114.2 379.624ZM821.749 404.753L820.544 403.977C817.366 401.949 813.721 399.848 809.827 400.594C806.347 401.264 803.357 404.034 800.327 405.744C793.677 409.494 786.217 411.544 778.607 412.064C772.277 412.494 765.707 411.724 759.617 409.844L759.827 429.505C762.057 430.214 764.367 430.724 766.797 430.904C774.177 431.454 781.377 429.684 787.567 425.614L790.698 423.535C796.057 420.014 801.085 417.22 808.177 418.505C815.197 419.784 821.087 424.284 826.827 428.204L827.768 428.836C834.36 433.188 841.042 435.997 849.127 436.064C857.857 436.133 866.487 433.704 874.617 430.714C882.687 427.755 890.357 424.204 898.987 423.114C901.627 422.784 904.847 422.684 907.877 423.204C908.277 420.974 908.657 418.755 909.017 416.524C909.797 411.734 910.467 406.954 911.047 402.164C900.929 399.441 891.322 404.34 881.865 409.162C877.013 411.636 872.199 414.09 867.377 415.484C859.127 417.864 850.147 417.835 841.897 415.534C834.263 413.404 828.262 408.982 821.749 404.753ZM819.419 435.241L820.497 435.974C827.147 440.434 833.817 444.053 841.847 445.214C850.077 446.404 858.427 445.383 866.417 443.234C874.577 441.044 882.157 437.294 889.907 434.005C894.007 432.264 898.147 430.704 902.547 429.894C903.947 429.633 905.327 429.564 906.687 429.564C906.617 429.954 906.537 430.354 906.457 430.744C905.687 434.644 905.487 440.204 903.137 443.524C900.977 446.585 896.337 448.324 893.237 450.144L892.877 450.354L892.066 450.36C889.632 450.402 887.183 450.676 884.807 451.144C879.67 452.146 874.616 454.237 869.548 456.333C860.398 460.119 851.201 463.923 841.387 461.374C828.947 458.154 819.117 448.484 806.107 446.814C799.197 445.925 792.887 447.803 786.637 450.614L784.447 451.595C781.201 453.04 778.114 454.358 774.907 455.454C769.967 453.335 765.027 451.234 760.057 449.184L759.957 440.303C766.527 441.664 773.527 441.454 779.637 440.044C783.317 439.194 786.947 437.784 790.247 435.944C793.527 434.124 796.257 431.394 799.587 429.704C806.373 426.261 813.045 430.854 818.718 434.759C818.953 434.921 819.187 435.082 819.419 435.241ZM804.057 456.094C798.057 455.675 792.657 458.154 787.297 460.794C790.317 462.104 793.337 463.404 796.357 464.694L816.457 473.274C823.097 476.104 830.127 478.564 836.437 482.053C836.887 482.303 837.247 482.604 837.517 482.954C844.077 478.755 851.017 475.005 857.667 471.014C859.187 470.104 860.717 469.194 862.247 468.284C854.327 470.934 846.207 472.264 837.607 469.774C826.137 466.464 816.177 456.944 804.057 456.094Z" transform="translate(-236.9973 -6.999804)" fill="#000000" fill-rule="evenodd" stroke="none"></path></g><g transform="translate(225 0)"><g><g><path d="M252.793 0C297.565 0 351.283 21.7046 355.85 22.1387L355.973 22.1453C358.376 22.1453 367.765 29.2985 384.141 43.6049L366.404 78.1989L367.84 79.5695C374.708 86.1548 380.572 92.1572 385.201 96.8888C422.992 135.523 429.785 287.213 420.878 340.112C411.972 393.011 395.476 444.774 318.678 444.774C241.879 444.774 156.439 398.596 143.278 384.216C134.503 374.63 124.647 370.037 113.71 370.438C113.26 369.87 112.815 369.305 112.372 368.741L110.763 368.513C95.6259 366.321 84.7798 363.37 78.2251 359.662C65.4219 352.418 51.3497 314.339 51.3497 305.951C51.3497 297.646 30.3369 237.234 29.9167 230.841L29.9103 230.664C29.9103 225.319 2.45921 200.752 2.45921 192.95C2.45921 185.147 -3.07401 185.621 2.45921 158.127L4.06676 150.05C9.95497 120.778 21.4798 72.3064 65.4219 51.2442C113.71 28.0989 207.57 0 252.793 0Z" transform="translate(-7.992421 58.70615)" fill="#FFFFFF" stroke="none"></path><path d="M294.952 1.14476C225.78 -7.23636 89.0586 32.3017 64.9759 57.8635C33.2369 83.9005 9.06486 144.648 1.68586 171.493C-0.0351405 179.159 -0.806141 187.687 1.16686 195.963C2.83758 206.706 8.84988 217.802 15.2437 226.989C15.2209 226.951 15.2529 226.872 15.3112 226.763L15.3959 226.613C18.083 230.297 21.3818 234.904 24.3887 239.009L25.6569 240.733C25.6519 240.764 25.6363 240.821 25.618 240.886C25.5455 241.147 25.4312 241.559 25.772 241.147L25.9069 240.973C26.1669 241.193 26.5069 241.413 26.8859 241.623L27.6159 242.633C28.2069 243.093 28.8369 243.473 29.5069 243.793C30.1569 244.153 30.8459 244.433 31.5559 244.643C31.5959 244.643 31.6269 244.643 31.6569 244.633C30.7849 278.287 38.5211 293.702 45.069 306.749C48.7185 314.021 51.9988 320.557 53.2139 329.105C54.8469 346.847 61.1629 363.303 77.2319 372.203C95.3989 382.161 124.768 394.314 139.457 381.593C148.24 393.149 159.311 403.525 171.957 411.693C173.846 413.233 175.826 414.603 177.877 415.833C180.056 417.403 182.247 418.953 184.417 420.533C186.887 421.903 189.467 423.063 192.137 424.013C192.417 424.143 192.556 424.093 192.627 423.953C193.467 424.293 194.306 424.603 195.177 424.873C196.195 425.318 195.622 423.987 195.218 423.193L195.056 422.883C195.627 423.093 196.197 423.293 196.777 423.483C197.157 423.533 197.366 423.373 197.387 422.993C197.266 422.313 196.967 421.713 196.476 421.203C196.016 420.553 195.497 419.783 194.927 419.073C195.407 419.263 195.896 419.463 196.387 419.643L196.493 419.685C197.388 419.978 196.612 418.177 196.497 418.003C196.476 417.983 196.467 417.963 196.447 417.933C196.797 418.063 197.146 418.203 197.497 418.323C198.297 418.683 198.717 418.333 198.527 417.493C198.146 416.803 197.697 416.153 197.186 415.563C196.707 414.933 196.167 414.363 195.567 413.853L193.527 412.873L193.391 412.745L193.257 412.623C193.317 412.523 193.356 412.423 193.356 412.343C187.491 407.509 177.881 404 171.616 398.543C169.927 397.363 168.297 396.113 166.686 394.843C151.957 381.107 140.56 363.67 131.737 345.112C130.573 344.178 129.592 345.583 130.826 347.303C130.6 347.187 130.383 346.609 130.124 345.922C129.557 344.416 128.793 342.384 127.311 343.532C127.302 343.593 127.294 343.648 127.287 343.697C127.245 343.98 127.229 344.09 127.255 344.188C127.298 344.355 127.462 344.491 127.826 345.403C127.825 345.511 127.824 345.603 127.824 345.682C127.821 345.965 127.819 346.085 127.848 346.197C127.904 346.417 128.074 346.607 128.567 347.922L128.737 348.383C128.587 348.403 128.417 348.453 128.266 348.543C128.655 348.254 123.731 341.214 124.606 346.073C124.564 346.059 124.552 346.054 124.539 346.054C124.533 346.053 124.527 346.055 124.516 346.056C124.502 346.059 124.48 346.062 124.441 346.066L124.286 346.073C124.313 345.574 121.762 344.607 122.667 346.983C122.577 346.963 122.515 346.889 122.438 346.799C122.231 346.556 121.922 346.194 120.697 346.443C81.5229 354.093 71.6599 274.957 109.887 266.673C110.137 266.853 110.536 266.823 110.646 266.483C119.636 263.959 132.39 265.438 138.587 274.963C138.28 275.907 143.464 279.537 140.257 274.353C140.507 274.603 140.757 274.783 141.007 274.853C141.421 276.754 146.1 280.48 142.917 274.563C142.947 274.563 142.987 274.553 143.027 274.543C143.419 276.329 148.398 278.776 144.826 273.683C160.7 268.433 158.187 253.529 155.802 239.385C155.006 234.664 154.225 230.028 154.146 225.863C158.396 203.789 158.557 190.282 180.627 175.303C196.104 161.186 196.186 135.831 214.266 122.973C232.692 108.85 256.307 106.499 279.141 105.031L287.561 104.506C314.516 102.994 340.797 101.399 367.677 99.9335C369.516 100.543 371.356 101.063 373.217 101.533C378.636 103.113 384.136 104.133 389.707 104.583C391.697 107.543 393.547 110.583 395.277 113.703C397.786 117.863 400.067 122.163 402.106 126.583C423.072 172.469 427.338 224.568 427.846 275.258L427.873 278.359C429.612 436.884 322.225 487.363 248.226 430.473C247.586 430.246 246.859 429.399 246.059 428.468C244.748 426.941 243.244 425.188 241.616 425.573C241.322 424.346 237.133 422.478 239.377 425.623C239.333 425.694 239.292 425.759 239.254 425.819C238.842 426.468 238.789 426.552 239.755 427.499L240.837 428.543C240.766 428.683 240.747 428.813 240.766 428.943C239.606 427.843 238.467 426.713 237.346 425.533L237.012 425.371C234.491 424.2 235.502 426.034 237.188 427.832L237.246 427.892L237.059 427.742C236.694 427.458 236.226 427.135 235.606 426.763C235.467 426.613 235.326 426.483 235.197 426.333C232.27 425.813 234.84 428.474 236.823 430.309L237.877 431.263C237.856 431.393 237.866 431.513 237.917 431.633C236.797 430.553 235.697 429.453 234.627 428.323C232.097 429.226 236.684 433.118 240.421 436.289C241.995 437.624 243.417 438.83 244.096 439.633C284.463 474.319 340.731 473.379 376.652 445.404C436.114 401.256 443.6 319.705 440.606 251.433C439.706 215.498 433.561 178.844 423.686 143.623C418.035 129.628 411.054 114.914 402.237 101.903C403.286 99.3635 404.106 96.9135 404.457 94.2535C407.246 86.5525 405.706 76.8925 401.579 69.0735C410.462 51.5634 388.198 39.3046 372.762 30.8053C368.858 28.656 365.391 26.7471 362.975 25.0545C348.636 14.8035 330.71 8.66647 313.356 4.61347C307.987 3.17347 302.547 2.11347 297.027 1.41347L294.952 1.14476ZM156.839 33.4435C201.601 20.9345 247.738 10.6005 294.646 14.6335C298.377 14.7135 302.047 15.2035 305.667 16.0935C323.142 19.7765 341.23 24.9985 357.008 34.6495C364.927 37.5245 372.615 40.9075 379.392 45.9865C369.953 44.0345 360.964 39.8325 351.532 38.9945C350.641 38.6935 349.75 38.3955 348.859 38.1005C287.723 32.0575 199.849 49.1955 167.661 88.7365C132.051 131.723 110.594 207.831 109.657 252.943C63.9789 259.716 60.1489 331.365 97.2069 352.413C100.458 355.065 105.481 357.741 110.226 358.793C110.707 358.893 111.197 358.973 111.686 359.053C113.161 359.496 114.81 359.973 117.427 360.133L117.924 360.171C120.24 360.312 122.503 360.009 124.707 359.253C125.326 359.113 125.297 358.703 125.076 358.293C125.417 358.203 125.747 358.123 126.076 358.013C126.887 359.713 127.737 361.393 128.616 363.053C128.657 363.123 128.697 363.183 128.726 363.243C127.639 363.768 127.866 364.364 128.613 365.592L129.346 366.783C121.167 368.545 112.049 366.058 103.699 362.907L102.614 362.492C76.146 353.704 74.3219 342.648 72.0485 328.869C70.8792 321.782 69.5911 313.975 64.7709 305.385C41.5398 267.317 43.145 239.43 44.824 210.262C45.509 198.36 46.2064 186.246 45.2339 173.139C43.0119 173.481 43.7919 174.34 42.7609 176.962C37.8209 193.745 34.6599 210.664 32.8059 228.093C14.9859 210.554 8.94086 182.231 20.7659 157.113C34.3079 123.306 49.8259 86.6905 79.8769 63.6735C101.386 48.1287 128.299 41.5935 153.751 34.331L156.839 33.4435ZM223.167 35.1131C215.938 30.6631 195.125 25.2621 210.925 36.6171C223.019 46.7931 228.094 39.4581 223.167 35.1131ZM165.699 48.5083C155.76 37.6549 182.359 48.0521 186.343 50.9381L186.457 51.0233C189.43 53.1163 188.827 57.6243 186.034 58.9483C180.277 59.0576 175.622 55.6122 171.007 52.1967C169.251 50.897 167.501 49.6017 165.699 48.5083ZM140.627 75.682C134.193 73.5444 119.499 68.6624 120.798 73.5932C129.818 78.5722 139.693 83.0132 148.7 88.8992C153.093 91.5922 160.185 90.3572 156.681 84.3952C153.691 80.0803 147.959 78.3519 142.959 76.4889L142.176 76.1932C141.743 76.0526 141.22 75.879 140.627 75.682ZM118.811 125.522L115.534 123.39C97.8503 111.816 72.8511 94.2793 117.186 112.423C122.239 114.59 128.953 115.872 131.71 120.684C136.041 129.553 124.643 130.149 118.811 125.522ZM102.079 162.351C104.084 150.029 79.0213 140.725 70.5363 143.833C66.6403 145.531 68.2203 149.397 71.8903 151.218C78.633 154.887 84.2971 158.575 90.5774 162.781L94.1863 165.204C96.9513 166.801 100.885 165.18 102.079 162.351ZM107.566 289.183C109.2 288.296 109.623 288.569 109.889 288.741C110.023 288.828 110.117 288.889 110.306 288.763C127.972 287.322 147.021 302.789 156.896 315.683C156.182 316.425 154.355 314.478 153.766 313.851C153.712 313.792 153.668 313.746 153.636 313.713C153.586 313.763 153.526 313.803 153.466 313.823L153.741 314.211C157.744 319.955 149.809 313.196 149.066 311.803C148.936 311.873 148.806 311.913 148.656 311.883C149.285 312.5 151.206 314.109 151.536 315.253L152.045 315.677C156.848 319.79 156.449 322.883 150.997 317.043C151.126 317.313 151.176 317.563 151.086 317.763L151.274 317.888C153.955 319.762 156.16 324.985 150.556 319.623C151.01 322.672 147.392 318.76 145.674 316.902C145.185 316.374 144.85 316.012 144.806 316.023C134.188 307.688 118.555 299.582 105.236 298.493L104.778 298.441C102.334 298.127 101.178 297.401 102.036 295.803C99.0262 295.087 99.7312 293.605 101.156 293.653C99.0332 292.257 100.944 290.922 102.176 291.443C101.58 289.792 103.087 290.078 104.14 290.278C104.583 290.362 104.944 290.43 105.036 290.333C106.23 288.492 106.833 288.938 107.189 289.2C107.358 289.325 107.472 289.409 107.566 289.183ZM238.524 429.117L238.123 428.76L238.475 429.201C238.66 429.429 238.849 429.634 239.157 429.843C239.137 429.773 239.137 429.703 239.146 429.623C238.942 429.468 238.733 429.297 238.524 429.117Z" transform="translate(-14.99996 50.99953)" fill="#000000" fill-rule="evenodd" stroke="none"></path></g></g><g transform="translate(159 186)"><g><path d="M15.9252 11.6746C25.7472 1.65261 51.3592 -8.04539 58.0782 10.4616C59.3582 13.9866 56.6332 18.7396 52.9632 19.4706C49.6471 20.1305 46.5373 19.632 43.413 19.1311C40.8749 18.7243 38.3271 18.3158 35.6512 18.5256C30.8182 18.9066 25.7772 20.5216 21.9132 23.5156C11.2112 31.8076 8.85721 45.8326 1.40021 56.3866C1.03721 56.9006 0.332206 56.6846 0.265206 56.0786C-1.43279 40.7136 5.16721 22.6506 15.9252 11.6746ZM164.471 1.74571C157.919 -0.296292 150.538 -0.493292 144.02 1.80871C140.872 2.92071 138.005 4.40171 135.378 6.45171C132.79 8.47171 131.676 10.5267 129.743 13.0307C129.356 13.5327 129.994 14.2247 130.537 14.0637C140.738 11.0477 154.631 13.0867 163.104 19.4867C166.689 22.1957 169.646 25.8837 171.372 30.0517C173.985 36.3617 174.902 42.3067 182.45 44.4907C185.823 45.4677 189.549 44.4077 192.02 41.9617L192.635 41.3517L192.843 41.141C197.439 36.3352 195.245 29.5801 190.11 26.6157C189.161 24.8407 188.283 21.8597 187.448 20.4167C185.876 17.6937 183.916 15.1357 181.798 12.8177C177.13 7.71171 171.071 3.80371 164.471 1.74571ZM156.036 44.5815C172.692 43.8015 183.053 61.9875 179.223 76.8885C178.561 79.4595 175.685 81.9835 172.909 81.6945L172.209 81.6301C171.854 81.596 171.497 81.5511 171.169 81.4605C168.533 80.7305 166.17 77.9885 166.362 75.1465L166.413 74.3184C166.801 67.2793 166.038 59.1692 157.673 57.4645C150.578 56.0185 146.617 62.8475 146.533 69.1335C146.517 70.2495 145.263 71.0285 144.276 70.4285C139.147 67.3075 138.259 61.0985 140.218 55.7515C142.701 48.9765 148.915 44.9145 156.036 44.5815ZM63.4997 61.6149C57.6307 50.8989 44.5537 44.4379 32.4327 48.4819C25.8267 50.6849 20.5927 56.2799 17.8997 62.5709C15.8467 67.3649 14.8117 75.7409 20.5707 78.5239C21.3347 78.8929 22.0987 78.8039 22.7357 78.2449C28.1577 73.4889 27.9337 65.3249 35.6637 62.6269C42.2807 60.3169 49.5447 64.6709 51.3347 71.2699L51.4015 71.5005C52.9774 76.6056 60.0783 78.726 63.8697 74.5789C66.2937 71.9279 66.9157 69.7239 67.3287 66.2279C67.6147 63.7979 65.5587 62.2109 63.4997 61.6149ZM150.214 87.9682C148.264 65.8832 117.473 73.0662 105.201 80.0942C104.352 80.5802 104.675 82.0962 105.722 82.0162C108.163 81.8301 110.587 81.5015 113.011 81.173C117.151 80.612 121.287 80.0515 125.495 80.2022C129.964 80.3642 137.1 81.2762 138.777 86.2682C140.672 91.9112 134.562 96.2222 129.979 97.5692L129.713 97.6467C125.466 98.8763 117.455 100.78 113.649 98.1962C106.243 93.1662 98.3377 104.175 104.298 110.315C111.459 117.692 126.126 113.85 134.401 110.448L134.732 110.309C143.555 106.552 151.11 98.1312 150.214 87.9682ZM43.3465 121.477C56.0075 119.94 68.3817 122.402 80.7379 124.859C85.1111 125.729 89.4821 126.598 93.8627 127.29C102.711 128.686 111.57 129.728 120.523 130.116C122.324 130.194 124.127 130.24 125.929 130.277C126.096 128.691 126.984 127.234 128.908 126.361C132.852 124.574 136.008 123.768 140.338 123.94C144.301 124.097 148.278 124.504 152.181 125.218C159.268 126.518 166.386 129.466 171.57 134.589C183.567 146.442 181.741 165.481 172.471 178.391C153.319 205.069 118.364 206.307 88.4261 205.959L85.6634 205.923C82.6154 205.879 79.4206 205.891 76.1327 205.904L76.121 205.904C50.0058 206.004 18.0177 206.126 7.01977 178.584C2.46558 167.179 3.09822 153.96 8.67421 143.021C15.3249 129.974 29.3247 123.179 43.3465 121.477ZM81.4794 137.485L78.0689 137.102C77.7892 137.07 77.5094 137.038 77.2297 137.006C68.0368 135.957 58.8485 134.909 49.6549 135.539C48.2839 135.634 46.8919 135.783 45.4969 135.988C47.1713 142.03 47.0306 149.126 47.7301 155.107C48.0005 157.42 48.3418 159.714 48.7199 161.999L50.3634 161.922C60.5285 161.371 70.7036 161.032 80.8767 160.628C80.8759 158.718 80.8864 156.807 80.9169 154.895L80.9545 152.983C80.9884 151.554 80.9853 150.072 80.9822 148.563C80.9748 144.913 80.9669 141.102 81.4794 137.485ZM99.1274 138.664C108.873 138.652 119.127 138.311 129.049 136.71C129.463 137.009 129.9 137.27 130.361 137.459L130.753 137.601C130.23 142.195 129.86 146.809 129.523 151.424L129.029 158.345L127.265 158.439C114.764 159.074 102.261 159.687 89.7565 160.254L89.3311 156.653C88.8541 152.537 88.4152 148.417 88.0313 144.292C87.8407 142.25 87.709 140.155 87.4555 138.085C91.3441 138.43 95.2347 138.669 99.1274 138.664ZM22.3597 149.574C26.3002 142.485 33.6324 138.61 41.3798 136.776C39.4864 142.644 39.3956 149.948 39.2149 155.765L39.1128 158.814C39.0769 160.004 39.0488 161.196 39.0268 162.39C32.3981 162.629 25.7374 162.918 19.1896 163.68C18.992 158.767 20.0208 153.781 22.3597 149.574ZM133.358 138.428C133.904 144.953 134.207 151.505 134.609 158.042L142.85 157.602C144.224 157.527 145.597 157.45 146.97 157.371C148.454 157.286 150.056 157.099 151.708 156.906C156.003 156.406 160.64 155.865 164.453 156.955C164.856 152.155 163.484 147.479 159.152 144.255C151.547 138.591 141.864 140.608 133.358 138.428ZM162.585 164.278C159.359 165.039 155.772 165.031 152.353 165.023C150.839 165.02 149.358 165.017 147.956 165.08C143.678 165.275 139.399 165.444 135.121 165.617C135.322 168.538 135.519 171.457 135.733 174.376C136.008 178.148 136.034 182.135 136.756 185.891C145.366 182.953 153.08 178.241 158.868 170.706C160.31 168.829 161.601 166.626 162.585 164.278ZM128.251 165.905L128.495 165.895C128.318 168.393 128.136 170.89 127.967 173.389C127.697 177.412 127.761 181.732 127.061 185.787C126.359 186.373 125.83 187.229 125.649 188.501L125.629 188.717C115.677 190.492 105.17 190.681 95.4074 190.604C95.2976 190.367 95.1879 190.129 95.0362 189.893C94.6001 189.21 94.0144 188.74 93.3688 188.448L93.4296 188.028C93.5443 187.307 93.3051 186.307 93.0891 185.404C92.9875 184.979 92.891 184.576 92.8389 184.233C92.4547 181.703 92.0855 179.17 91.7413 176.635C91.3022 173.412 90.918 170.182 90.5419 166.953C103.117 166.73 115.683 166.39 128.251 165.905ZM21.2471 173.269C20.3321 171.062 19.7204 168.691 19.4061 166.269C25.8672 166.917 32.448 167.056 38.9849 167.117C39.0069 172.956 39.2992 178.802 40.1125 184.552C40.4388 186.865 41.731 188.215 43.3585 188.777C33.9787 186.944 25.1138 182.593 21.2471 173.269ZM80.9375 167.124C71.8788 167.278 62.8162 167.397 53.7594 167.286L49.6479 167.223C50.5161 171.881 51.461 176.523 52.2463 181.212C53.0656 186.099 48.7639 189.206 45.0409 189.081C45.459 189.149 45.8761 189.22 46.2942 189.279C55.9646 190.647 65.9434 190.576 75.817 190.505C77.8197 190.491 79.8181 190.477 81.8087 190.475C81.3529 187.814 81.3567 184.909 81.3601 182.337L81.3601 182.337C81.3614 181.325 81.3627 180.365 81.3358 179.491L81.3177 179.012C81.1371 175.047 81.0104 171.086 80.9375 167.124Z" transform="translate(50.00019 64.99949)" fill="#000000" fill-rule="evenodd" stroke="none"></path></g></g><g transform="translate(123 338)"></g><g transform="translate(47 241)"></g></g></g></svg>