<?xml version="1.0" standalone="no"?>
<svg viewBox="-350 -150 1500 1500" xmlns="http://www.w3.org/2000/svg" style="width: 585px; height: 585px; justify-content: center; align-self: center; transform: scale(1, 1);"><g transform="rotate(0 415.91156005859375 605.4627876281738)"><g transform="translate(0 459)"><path d="M0 0L229 0L229 282L0 282L0 0Z" transform="translate(461.0002 279.0005)" fill="#FFFFFF" stroke="none"></path><path d="M478.211 10.0224C451.865 -8.07661 389.892 0.376388 365.207 19.1734C356.456 26.3498 355.931 33.1891 355.374 40.4577C355.242 42.1706 355.109 43.9073 354.866 45.6779L354.767 46.3589C353.545 54.3223 348.01 62.9897 347.416 73.2604C344.894 71.7809 342.429 70.0796 340.065 68.448C334.969 64.931 330.341 61.7376 326.628 61.7864C310.167 62.0024 303.499 85.0831 287.852 97.5744C273.939 106.231 256.205 106.914 240.293 109.036L238.784 109.242C184.365 116.975 137.006 151.343 104.703 194.751C30.0336 301.118 23.2206 439.036 3.89459 563.687C3.51865 568.088 3.03488 572.695 2.53696 577.436C-1.08157 611.896 -5.44748 653.472 25.3946 674.547C24.9744 674.671 23.8897 674.626 22.6448 674.575C19.7156 674.454 15.8999 674.298 17.7716 676.204C55.8956 687.781 96.5396 685.24 134.772 675.142C133.245 685.592 131.782 696.042 130.205 706.487C129.422 711.675 132.293 716.934 138.157 716.926C299.797 715.874 461.421 711.909 623.054 709.897L627.427 709.84C659.499 709.433 691.588 709.3 723.648 710.413C735.213 710.844 746.61 712.224 758.121 713.235C767.014 713.646 772.693 703.027 768.284 695.525C766.444 691.309 764.454 687.759 761.93 684.107C775.906 601.796 756.571 521.285 737.335 441.184C729.909 410.263 722.498 379.404 717.024 348.525C702.166 239.267 683.425 143.029 559.983 123.38C557.146 116.649 556.961 102.581 552.847 97.5744C549.53 86.9584 530.636 79.2318 519.195 84.6268C507.069 57.5889 504.233 28.1974 478.211 10.0224ZM504.14 341.178C506.191 339.828 595.804 327.719 630.495 351.819C638.217 357.183 635.98 395.299 633.465 430.706L632.445 444.949C627.844 453.928 618.904 482.876 611.188 494.352C596.721 515.867 553.337 525.782 528.438 516.226C516.42 512.206 498.344 506.177 492.334 494.352C486.604 481.129 493.076 467.857 499.621 454.433C503.44 446.602 507.284 438.72 508.745 430.766C509.367 427.379 507.561 423.658 505.775 419.979C504.359 417.06 502.955 414.168 502.787 411.49C502.8 410.094 502.916 408.386 503.041 406.552C503.34 402.15 503.688 397.021 502.787 393.741C501.452 388.882 499.431 384.487 497.476 380.233C493.673 371.959 490.117 364.223 492.334 354.663C486.754 356.783 483.174 350.841 488.005 349.263C490.413 348.921 492.823 348.589 495.235 348.269C497.678 344.411 499.623 344.149 504.14 341.178Z" transform="translate(29.00043 -16)" fill="#FFFFFF" fill-rule="evenodd" stroke="none"></path><path d="M335.273 6.09217L325.345 0C309.808 1.36287 303.086 23.5621 287.852 35.7237C274.381 44.1051 257.328 45.0119 241.814 46.987L240.293 47.185L238.784 47.3917C184.365 55.1247 137.006 89.4927 104.703 132.901C30.0336 239.268 23.2206 377.186 3.89459 501.837C3.51865 506.237 3.03488 510.844 2.53696 515.586C-1.08157 550.045 -5.44748 591.622 25.3946 612.697C24.9744 612.82 23.8897 612.775 22.6449 612.724C19.7156 612.604 15.8999 612.447 17.7716 614.354C55.8956 625.931 96.5396 623.39 134.772 613.292C133.245 623.742 131.782 634.192 130.205 644.637C129.422 649.825 132.293 655.084 138.157 655.075C299.797 654.024 461.421 650.059 623.054 648.047L627.427 647.99C659.499 647.582 691.588 647.449 723.648 648.563C735.213 648.994 746.61 650.374 758.121 651.385C767.014 651.796 772.693 641.177 768.284 633.675C766.444 629.459 764.454 625.909 761.93 622.257C775.906 539.945 756.571 459.434 737.335 379.333C729.909 348.413 722.498 317.553 717.024 286.675C702.166 177.417 683.425 81.1781 559.983 61.5291C557.146 54.7981 556.961 40.7307 552.847 35.7237C550.379 27.8239 539.285 21.5242 529.055 21.0407L530.824 26.4205L514.233 42.0403C476.31 68.1505 457.348 83.186 457.348 87.1467C457.348 90.8295 458.27 98.121 460.114 109.021L460.548 111.551L441.166 130.873Q409.698 99.3027 409.698 90.3662L409.698 45.8471Q409.698 39.2888 392.931 34.5943L335.273 6.09217ZM463.502 261.306Q455.019 261.306 428.756 287.652L427.214 288.365C406.049 298.196 392.028 306.724 385.15 313.948L384.905 314.209Q374.484 325.389 343.63 373.669L313.843 391.284L302.573 391.284L294.549 449.487L313.843 491.047L357.547 476.325L428.756 457.556L469.618 416.101L492.668 408.362C489.872 416.442 488.858 424.48 492.334 432.501C498.344 444.326 516.42 450.356 528.438 454.376C553.337 463.932 596.721 454.016 611.188 432.501C618.904 421.025 627.844 392.077 632.445 383.098L633.765 364.595C636.143 330.451 637.908 295.118 630.495 289.968C595.804 265.868 506.191 277.978 504.14 279.327C499.623 282.298 497.678 282.561 495.235 286.419L493.97 286.588L501.082 276.943L498.564 275.598C480.596 266.07 468.909 261.306 463.502 261.306ZM497.476 318.383C493.673 310.109 490.117 302.373 492.334 292.813C492.043 292.923 491.758 293.012 491.479 293.08L491.479 309.457L502.253 330.081C500.945 325.93 499.186 322.102 497.476 318.383Z" transform="translate(29.00043 45.85067)" fill="#FFFFFF" fill-rule="evenodd" stroke="none"></path><path d="M358.545 5.71615C357.95 -1.93685 369.861 -1.87385 370.451 5.71615C371.738 22.2861 368.009 38.6992 359.983 53.2261C359.924 53.3321 359.859 53.4261 359.797 53.5261C364.817 56.1381 369.894 58.6441 375.084 60.8841C381.723 63.7501 388.487 66.3601 395.372 68.5742C401.6 70.5781 409.273 71.3691 414.509 75.5391C424.898 83.8119 421.839 100.455 419.672 112.245C419.536 112.985 419.403 113.706 419.278 114.404L418.946 116.271C417.889 122.357 417.124 128.601 419.69 134.442C422.43 140.681 427.971 145.309 432.914 149.773L433.912 150.678C438.291 154.668 443.295 159.515 446.507 164.923C449.439 158.861 453.436 153.907 457.662 148.33C460.101 145.111 459.162 143.637 457.568 141.133C457.192 140.542 456.779 139.893 456.365 139.15C454.28 135.408 453.262 131.419 453.914 127.15C455.117 119.266 461.418 113.571 467.69 109.292C475.097 104.241 483.364 100.499 491.021 95.8001C506.755 86.1461 522.078 75.1082 535.883 62.8491C536.264 62.5102 536.924 62.9542 536.619 63.4171C525.714 80.0041 512.927 94.3371 497.212 106.503C490.84 111.436 484.146 115.528 477.407 119.83L475.47 121.073C472.764 122.826 469.389 125.168 468.166 128.152C467.228 130.439 468.528 132.298 469.826 134.154C470.231 134.734 470.636 135.313 470.973 135.905C475.46 143.8 473.295 151.166 467.976 157.861L467.728 158.169C462.442 164.683 458.436 170.741 456.52 179.063C452.403 196.94 458.137 215.561 464.14 232.344L464.377 233.005C467.624 242.051 471.075 251.031 473.896 260.222L474.672 262.763C477.228 271.22 479.321 279.561 476.454 288.254C475.479 291.211 471.446 291.91 469.771 289.127C463.862 279.313 462.389 267.503 458.685 256.713C455.075 246.197 450.93 235.871 447.443 225.312C442.953 211.717 439.948 197.083 441.579 182.823C441.531 182.74 441.478 182.662 441.438 182.574L440.295 180.074C437.178 173.304 434.168 167.392 428.5 161.996C422.588 156.367 416.171 151.384 411.519 144.57C403.803 133.268 405.623 120.996 407.458 108.62C408.026 104.788 408.595 100.946 408.884 97.1201L409.024 95.1356C409.245 91.7754 409.367 87.2088 407.172 84.8831C404.703 82.2652 398.913 81.5971 395.637 80.4381C387.171 77.4421 378.828 73.9511 370.882 69.7591C363.318 65.7691 355.991 61.3611 349.169 56.1971L345.711 53.5959C340.255 49.4796 334.598 44.9844 330.942 39.3811C330.52 38.7361 331.237 37.6951 332.001 38.0041C338.105 40.4811 343.682 44.4212 349.393 47.8491C349.482 47.6401 349.585 47.4291 349.702 47.2172C356.768 34.4291 359.674 20.2612 358.545 5.71615ZM522.707 22.9541C524.349 15.6912 513.078 12.6607 511.172 20.0094C507.045 35.9265 512.426 53.5115 525.361 63.8635C531.286 68.6065 539.764 60.2345 533.78 55.4454L533.432 55.1629C523.973 47.3855 519.542 35.1721 522.653 23.1754L522.707 22.9541ZM330.002 40.1074C331.524 37.2424 327.98 34.5774 325.585 36.6984C315.595 45.5504 305.288 55.1304 294.142 62.4944C290.83 64.6824 289.141 69.4454 291.109 72.9734C275.552 79.8134 257.949 81.2054 241.272 83.4754C224.851 85.7104 208.715 89.3035 193.016 94.6655C177.334 100.023 162.138 107.033 148.666 116.769C134.286 127.16 123.528 140.234 113.351 154.654C92.0759 184.795 76.7975 218.372 63.6021 252.681L62.3515 255.95C48.0715 293.486 36.2105 331.941 27.2285 371.092C22.1815 393.09 17.8465 415.302 14.1155 437.561C12.2675 448.583 10.6335 459.639 9.15452 470.717C8.87012 472.849 8.55188 474.998 8.23191 477.159C6.84855 486.502 5.43295 496.063 6.58052 505.325C6.87952 507.739 8.01152 509.688 9.55152 511.047C6.55752 522.988 4.61652 535.282 3.01152 547.348C0.620517 565.323 -0.351483 583.731 0.112517 601.862C0.488517 616.552 1.48952 631.886 8.57152 645.092C15.7685 658.513 29.2125 666.747 43.5965 670.64C76.1507 679.448 109.339 668.568 139.217 655.648L141.98 654.444L144.076 653.507C141.434 661.367 140.353 669.7 137.492 677.508C136.328 680.685 138.263 684.684 141.069 686.298L141.477 686.532L141.719 686.666C143.843 687.778 146.513 687.793 148.588 686.532L148.92 686.319C149.181 686.137 149.437 685.926 149.686 685.698L149.663 685.716L149.731 685.659L149.933 685.474L149.929 685.502L150.156 685.293C152.31 683.251 153.048 680.635 152.502 677.508L152.305 676.306C151.027 667.882 151.649 659.253 149.948 650.884C178.288 638.146 206.124 624.103 233.375 609.216C250.318 599.96 267.025 590.278 283.39 580.032C291.44 574.993 299.425 569.849 307.341 564.601L307.864 564.256C315.911 558.975 324.875 554.276 330.079 546.017C331.942 543.059 331.044 539.906 328.924 537.915C330.448 536.629 331.399 534.665 331.634 532.578C343.654 525.488 357.554 521.819 371.172 518.831L372.433 518.557C390.522 514.64 408.868 511.688 425.97 504.298C434.223 500.732 441.917 496.094 448.669 490.13C456.128 483.542 461.658 475.157 468.787 468.253C472.163 464.984 475.897 462.206 480.304 460.485C481.348 460.076 482.409 459.715 483.477 459.375C485.81 467.93 488.658 476.53 494.066 483.646C500.335 491.894 509.223 496.441 519.367 498.051C530.757 499.859 542.51 499.943 554.01 500.522C556.346 500.64 558.722 500.809 561.119 500.979C570.862 501.672 580.964 502.391 590.273 499.784C609.486 494.405 622.067 473.249 630.004 456.086L630.484 455.04C638.931 436.521 643.413 416.698 645.167 396.47C647.2 373.036 645.199 349.407 640.706 326.366C640.389 324.74 638.886 323.502 637.38 323.042C598.168 311.046 553.536 306.351 513.352 316.57C513.701 314.784 513.585 312.943 512.836 311.169C510.944 306.687 505.993 305.498 501.762 304.139L501.177 303.947C495.503 302.062 489.838 300.145 484.154 298.288L484.024 298.246C474.659 295.188 465.086 292.061 455.978 297.656C451.799 300.224 448.19 303.878 445.023 307.581C443.155 309.768 441.315 312.002 439.527 314.253C439.228 314.63 438.367 316.065 437.528 317.49L435.992 320.115C435.958 320.055 435.908 319.999 435.825 319.958C434.78 319.455 434.203 319.742 433.394 320.571C433.076 320.897 432.9 321.387 432.966 321.847C417.219 326.236 402.209 333.227 390.102 344.456C375.201 358.277 365.831 376.948 354.8 393.738C348.81 402.854 341.939 411.945 333.827 419.297C329.863 422.89 325.495 425.725 320.817 427.825C320.72 427.715 320.627 427.603 320.518 427.499C316.823 424.048 310.957 422.363 306.651 424.729C306.643 424.729 306.634 424.728 306.625 424.728L306.392 424.738C306.351 424.739 306.311 424.743 306.271 424.749L306.037 424.782C304.409 422.339 301.28 420.883 297.988 422.736C267.399 439.952 235.979 455.863 203.886 470.081C193.904 474.503 183.873 478.837 173.798 483.061C173.826 481.026 172.93 478.952 171.378 477.105C170.115 475.603 168.007 475.603 166.448 476.514C177.597 462.893 178.068 444.51 178.669 426.808L178.838 422.101C179.18 413.069 179.629 404.046 180.079 395.025C181.057 375.389 182.035 355.763 181.906 336.074C181.898 334.905 179.983 334.55 179.788 335.788C176.134 358.969 173.728 382.321 171.455 405.676L170.163 419.021C168.42 436.996 170.075 461.372 153.778 473.441C152.297 474.538 151.256 476.409 151.055 478.272C145.493 476.891 139.78 475.831 134.191 474.846L130.855 474.261C128.866 473.914 126.829 473.511 124.764 473.103C117.608 471.69 110.112 470.209 103.083 470.696C102.479 470.737 102.132 471.599 102.752 471.919C110.811 476.075 120.498 477.804 129.12 480.557C138.41 483.523 147.808 487.046 157.28 489.332C157.61 489.411 157.926 489.453 158.231 489.47L155.577 490.551C139.426 497.017 122.963 502.939 107.051 509.96C106.119 510.371 106.828 511.66 107.701 511.502C124.028 508.547 140.2 503.663 155.994 498.493L159.373 497.381C176.042 491.87 192.484 485.856 208.718 479.167C240.389 466.118 271.243 451.43 301.256 434.937C300.866 437.269 300.611 439.632 300.277 441.841C299.432 447.433 298.618 453.04 297.959 458.657C297.776 460.212 297.587 461.768 297.398 463.326C296.231 472.927 295.059 482.579 295.435 492.254C295.976 506.185 300.602 523.402 311.717 533.05C310.139 535.458 310.98 538.216 312.864 539.97C309.019 542.243 305.44 545.052 301.663 547.614C295.069 552.087 288.425 556.489 281.734 560.818C268.099 569.637 254.288 578.206 240.326 586.499C212.91 602.783 184.821 617.798 155.943 631.325C154.793 631.864 153.64 632.405 152.482 632.949C125.4 645.662 96.1017 659.416 65.7135 659.019C52.1085 658.842 36.5855 655.751 26.4915 645.921C16.7445 636.43 14.4965 621.866 13.4905 608.904L13.3092 606.482C12.029 588.722 11.8286 570.975 12.2705 553.177C12.5369 542.473 13.3256 531.832 14.1715 521.194L14.8095 513.215C17.9505 513.362 21.0885 511.634 22.4175 507.47C25.5175 497.754 25.7865 487.358 26.9575 477.253C28.0545 467.79 29.3035 458.348 30.7095 448.926C33.6305 429.363 37.1845 409.936 41.5605 390.646C50.1645 352.723 60.8225 315.245 73.5645 278.503C85.8155 243.179 99.7315 208.279 119.526 176.423C128.375 162.184 138.043 147.624 150.465 136.224C162.167 125.482 176.297 117.599 190.663 110.998C206.957 103.51 224.232 98.5164 241.6 94.2164L243.493 93.7477C260.84 89.4508 277.9 85.0758 292.846 75.0214C302.531 83.4644 311.347 91.9874 319.535 101.966C327.815 112.058 335.753 122.368 345.207 131.43C354.677 140.507 365.395 147.619 377.69 152.24C390.418 157.024 404.157 158.48 415.85 165.72C418.096 167.111 420.768 164.357 419.441 162.128C412.711 150.825 399.952 145.165 388.014 140.974L385.614 140.141C373.73 135.942 363.901 129.646 355.013 120.638C346 111.505 338.409 101.101 330.38 91.1205C324.101 83.3165 317.452 74.9894 309.699 68.2824C312.72 65.0544 315.701 61.7904 318.484 58.3394C323.074 52.6474 326.582 46.5464 330.002 40.1074ZM536.927 52.289C536.627 51.368 537.771 50.492 538.58 51.018C543.271 54.0719 547.336 58.1069 551.663 61.644C556.464 65.5679 561.3 69.4119 566.211 73.197C573.37 78.716 565.067 88.8759 558.765 82.847C550.141 74.6 540.696 63.816 536.927 52.289ZM566.602 95.1013C567.044 87.1774 555.96 86.6624 553.528 93.3314C551.598 98.6224 551.064 104.261 548.715 109.45C546.387 114.591 543.692 119.579 540.738 124.385C534.921 133.85 528.551 143.583 521.63 152.276C515.001 160.602 504.432 164.179 494.133 160.944C492.086 160.301 489.924 159.05 487.709 157.769C482.53 154.772 477.057 151.605 472.056 155.631C471.539 156.046 472.097 156.922 472.695 156.728C476.923 155.354 480.72 158.798 484.249 161.998C485.882 163.478 487.457 164.907 488.99 165.781C493.071 168.107 497.772 169.292 502.429 169.635C513.482 170.449 523.074 165.55 530.382 157.538C538.443 148.701 545.99 139.337 552.433 129.247C555.805 123.969 558.623 118.562 561.063 112.803L561.315 112.211C563.679 106.684 566.263 101.189 566.602 95.1013ZM567.483 100.423C565.915 100.05 565.419 102.191 566.835 102.773C602.303 117.38 638.614 132.479 663.979 162.46C688.974 192.002 701.259 230.972 709.592 268.174L710.097 270.449C718.612 309.118 726.148 348.065 733.539 386.978L738.47 412.966C741.77 430.323 745.077 447.679 748.285 465.053L748.886 468.279C752.717 488.706 757.046 509.04 759.95 529.63C763.401 554.097 765.716 578.672 766.838 603.355C767.959 628.033 766.799 652.527 765.179 677.15C764.618 685.667 778.964 687.814 780.279 679.193C786.927 635.618 783.262 590.652 777.17 547.19L776.736 544.125C770.695 501.861 762.496 460.067 753.812 418.298L752.069 409.944C742.684 365.097 734.213 320.072 724.909 275.211C716.537 234.839 705.932 194.429 680.412 161.178C667.284 144.072 650.762 130.161 631.247 120.843C611.745 111.53 591.229 106.108 570.335 101.103L567.483 100.423ZM475.483 308.104C476.113 308.34 476.735 308.574 477.346 308.79C481.501 310.263 485.681 311.661 489.857 313.075L489.899 313.09C490.512 313.309 494.392 314.803 497.667 315.961L499.195 316.49L498.527 317.202C498.414 317.319 498.3 317.435 498.181 317.546C496.943 318.819 495.807 319.98 494.827 321.468C494.792 321.521 494.768 321.574 494.737 321.627C482.6 312.434 463.452 315.428 448.992 318.207L446.167 318.756C451.794 314.194 458.122 307.267 465.233 306.115C468.692 305.555 472.197 306.87 475.483 308.104ZM320.892 317.662C321.841 317.469 322.818 317.222 323.81 316.97C327.351 316.074 331.083 315.129 334.423 316.44C336.621 317.304 337.707 319.984 335.85 321.847C332.626 325.079 327.94 325.259 323.597 326.021L323.215 326.09C318.08 327.04 312.936 327.941 307.785 328.795C298.094 330.4 288.38 331.819 278.632 333.025C268.62 334.264 258.58 335.367 248.526 336.197L244.634 336.516C236.141 337.195 227.304 337.708 218.971 336.407C217.76 336.218 217.955 334.455 218.971 334.146C228.1 331.383 238.114 330.642 247.552 329.473C257.586 328.228 267.603 326.913 277.594 325.353C287.569 323.795 297.531 322.123 307.456 320.275C311.942 319.441 316.421 318.57 320.892 317.662ZM573.684 318.788C553.514 316.621 533.315 317.078 513.085 317.66C511.467 322.952 505.835 327.462 500.378 327.632C504.652 334.137 505.093 342.941 502.096 349.84C508.459 352.373 513.941 356.923 517.268 363.403C521.884 372.386 521.28 382.382 516.719 390.684C520.612 394.208 522.909 399.931 522.679 405.325C522.422 411.34 518.837 416.478 515.858 421.458C512.639 426.844 512.531 431.586 511.542 437.618C510.095 446.446 504.141 451.8 496.48 455.144L496.887 456.746C498.862 464.435 501.319 472.547 506.965 478.168C514.226 485.401 525.492 485.334 535.087 485.792L535.549 485.814C544.335 486.254 553.117 486.768 561.899 487.266L568.487 487.634C578.599 488.19 588.31 488.258 596.565 481.572C610.042 470.66 619.281 452.602 625.129 436.614C637.403 403.058 637.55 366.233 631.916 331.285C613.021 325.195 593.416 320.908 573.684 318.788ZM490.062 336.137C486.776 328.373 474.676 328.536 467.806 329C450.506 330.169 431.788 334.546 416.395 342.632C400.436 351.015 389.686 364.447 380.068 379.3L379.618 379.997C370.243 394.57 361.214 411.821 346.534 421.841C339.057 426.946 330.326 431.607 321.254 433.626C320.631 434.721 319.622 435.588 318.299 435.903L317.684 436.044C315.1 436.615 311.086 437.246 307.619 436.868C307.642 438.564 307.624 440.247 307.667 441.854C307.789 446.459 307.841 451.084 307.841 455.692C307.841 459.178 307.774 462.666 307.707 466.154C307.588 472.329 307.469 478.507 307.727 484.675C308.084 493.214 309.29 502.136 313.39 509.769C316.397 515.369 320.366 519.075 325.157 522.613C336.943 515.43 350.27 511.052 363.796 507.76C380.154 503.779 396.903 501.122 412.889 495.724C420.583 493.125 427.98 489.724 434.682 485.105C441.794 480.2 447.228 473.564 452.818 467.073L453.691 466.065C459.396 459.522 465.621 453.262 473.684 449.714C480.627 446.658 489.778 446.114 495.849 441.386C499.023 438.912 499.289 435.322 499.622 431.646C496.597 432.079 493.433 431.635 490.352 431.203C489.474 431.08 488.603 430.958 487.744 430.857L485.736 430.622C482.072 430.186 478.492 429.708 474.885 428.775C474.215 428.602 474.215 427.592 474.885 427.419C479.148 426.318 483.372 425.849 487.744 425.337L488.77 425.209C489.275 425.143 489.782 425.073 490.292 425.002C493.78 424.518 497.376 424.019 500.76 424.778C501.456 422.13 502.461 419.602 503.871 417.07C505.849 413.513 509.595 409.48 510.101 405.325C510.252 404.084 509.963 402.621 509.378 401.524L509.176 401.151C508.93 400.709 508.639 400.265 508.213 399.989C508.166 400.044 508.065 400.107 507.849 400.175C504.864 401.115 502.26 399.654 500.878 397.402C496.993 397.884 492.873 397.94 488.935 397.993C486.926 398.02 484.964 398.046 483.106 398.128L477.543 398.398C471.598 398.67 465.384 398.789 459.799 397.588C459.019 397.421 458.783 396.123 459.564 395.789C466.431 392.852 474.76 391.915 482.112 390.787C486.219 390.156 490.354 389.676 494.473 389.121C497.215 388.751 500.125 388.14 502.966 387.993C510.089 379.126 506.25 365.138 496.338 361.32C493.476 362.578 490.843 362.259 487.909 361.904C487.141 361.811 486.353 361.716 485.535 361.645C481.596 361.307 477.648 361.078 473.695 361.095C470.477 361.11 467.181 361.462 463.875 361.815C459.042 362.332 454.189 362.85 449.53 362.317C448.254 362.17 447.068 360.472 448.337 359.436C454.342 354.535 462.95 352.937 470.573 351.893L472.154 351.681C474.71 351.346 477.818 350.857 481.042 350.566C481.771 349.144 483.078 348.069 485.044 347.802C485.628 347.722 486.215 347.675 486.801 347.625L486.792 347.567C491.583 347.337 491.375 339.243 490.062 336.137ZM682.39 356.92C682.857 356.211 683.966 356.659 683.761 357.498C678.34 379.707 673.251 401.961 669.928 424.594C664.405 462.209 664.903 500.277 665.399 538.2C665.442 541.461 665.485 544.72 665.523 547.978L665.548 550.107C665.8 572.273 666.15 594.441 666.883 616.598C666.972 619.297 667.083 622.002 667.193 624.711C667.54 633.241 667.889 641.804 667.587 650.308C667.37 656.386 665.75 662.135 665.176 668.14C664.758 672.502 664.997 676.919 665.233 681.304C665.282 682.198 665.33 683.09 665.372 683.981C665.54 687.477 660.38 687.328 660.029 683.981L659.58 679.652C658.997 674.173 658.277 668.728 656.481 663.484C654.322 657.177 653.286 650.983 652.537 644.361C651.39 634.213 650.88 623.964 650.437 613.746L650.134 606.678C648.285 563.974 648.35 521.069 651.343 478.409L651.562 475.363C654.526 435.039 659.669 391.47 682.39 356.92ZM406.093 374.471L405.945 374.46C404.586 374.428 403.931 376.166 404.509 377.23C406.117 380.183 405.066 383.707 404.014 387.233C403.29 389.66 402.565 392.089 402.708 394.334C402.893 397.244 403.472 400.041 404.625 402.718C405.789 405.419 407.849 407.663 408.966 410.346C410.055 412.96 409.999 415.955 409.942 418.969C409.894 421.534 409.846 424.112 410.503 426.482C412.157 432.449 417.101 437.167 423.504 435.119C425.469 434.491 426.423 432.965 426.636 431.006C426.869 428.858 426.486 426.931 426.017 424.93L425.575 423.054C424.966 420.376 425.066 417.647 424.848 414.911C424.317 408.262 422.071 403.953 418.418 398.571C414.867 393.337 415.591 388.095 414.115 382.297C413.099 378.308 410.246 374.945 406.093 374.471ZM161.717 487.937C161.815 487.818 161.908 487.693 161.993 487.562L162.353 487.793L161.565 488.113L161.717 487.937ZM474.668 497.371C475.278 496.012 477.412 496.161 478.068 497.371C480.639 502.113 480.924 508.167 481.41 513.521L481.461 514.072C482.079 520.605 482.626 527.16 482.961 533.714C483.596 546.153 483.9 558.576 483.861 571.031C483.821 583.795 483.564 596.544 482.876 609.289L482.69 612.704C482.062 623.779 481.008 636.133 475.745 645.816C473.832 649.337 468.629 648.302 467.521 644.742C464.352 634.564 465.371 622.736 466.3 611.952C466.435 610.386 466.568 608.842 466.686 607.328L467.409 598.013C468.125 588.696 468.808 579.377 469.349 570.05C470.091 557.289 470.703 544.517 471.292 531.75C471.484 527.603 471.691 523.455 471.909 519.308L472.245 513.09C472.532 507.888 472.508 502.18 474.668 497.371ZM68.1275 512.338L66.5205 513.89C61.0399 519.222 55.9461 524.845 51.2398 530.884C46.5208 536.937 41.1168 543.494 38.0308 550.582C36.4248 554.271 36.1598 557.912 40.4078 559.254C40.8988 559.409 41.3918 558.801 41.0958 558.359L41.0379 558.255C40.1633 556.357 46.6599 550.003 49.7642 546.967C50.435 546.311 50.9474 545.809 51.1928 545.542L52.6337 543.98C56.4875 539.83 60.436 535.806 64.5418 531.893C69.1698 527.48 73.8068 523.109 78.7268 519.02C83.2178 515.286 89.4568 512.112 90.7448 505.996C91.3478 503.135 89.4948 500.721 86.5868 500.537C80.2125 500.134 74.6471 505.763 70.0522 510.411C69.3903 511.081 68.7486 511.73 68.1275 512.338Z" transform="translate(24 7.000038)" fill="#000000" fill-rule="evenodd" stroke="none"></path></g><g transform="translate(225 0)"><g><g><path d="M361.406 119.845C361.07 107.887 343.677 102.922 338.652 114.765C338.34 115.082 338.001 115.387 337.683 115.66C339.256 114.311 335.967 116.543 335.432 116.819C334.974 117.055 334.506 117.268 334.039 117.488C330.807 87.1942 319.835 54.5362 291.483 39.3302C251.939 20.1542 206.246 16.4112 162.863 18.3162C140.886 19.6202 115.508 23.1342 95.9827 12.0162C89.8987 8.55221 85.0217 3.09921 78.1467 0.958206C56.4437 -4.91279 46.5997 17.3732 49.5557 35.7002C40.2987 35.7732 31.1157 40.8982 27.1207 49.3362C24.7747 54.3302 24.8157 59.7192 22.7927 64.7312C16.5857 77.4412 7.70466 86.5772 12.7257 101.987C3.89466 112.036 8.92966 127.249 16.0557 136.87C19.5747 141.874 23.7657 146.678 26.3437 152.279C28.8457 157.642 25.0687 164.002 22.9667 169.086C7.42666 205.935 8.31466 246.516 16.6767 284.952C-0.103336 292.233 -5.13934 314.993 5.80266 329.324C9.56766 334.39 14.1607 336.27 19.3697 339.387C25.9617 343.015 20.5777 357.547 22.6887 364.565C25.5567 381.698 41.1567 392.249 56.5817 381.123C66.3697 379.642 74.2647 408.121 81.3727 415.269C85.7517 421.029 90.6137 426.201 95.8997 430.974C111.65 471.499 192.356 492.049 232.258 489.703C274.043 485.328 302.232 449.842 325.704 418.348C337.757 401.567 345.596 382.785 348.447 362.3C351.311 341.712 350.058 321.087 348.122 300.474C344.055 256.678 337.639 193.582 333.496 149.313C348.468 148.08 361.86 135.333 361.406 119.845L361.406 119.845Z" transform="translate(68.99953 24.00009)" fill="#FFFFFF" stroke="none"></path><path d="M0.486308 0.4125C0.472308 0.4745 0.493308 0.5215 0.507308 0.5875C0.510309 0.5685 0.513308 0.5585 0.518308 0.5355C0.506308 0.4855 0.497308 0.4525 0.486308 0.4125" transform="translate(103.5312 117.1017)" fill="#4F66AF" stroke="none"></path><path d="M0.6075 0.5795C0.5525 0.5215 0.4745 0.4785 0.3965 0.4205C0.3945 0.4225 0.3935 0.4245 0.3925 0.4265C0.4655 0.4745 0.5355 0.5295 0.6075 0.5795" transform="translate(103.4061 117.5714)" fill="#4F66AF" stroke="none"></path><path d="M92.577 3.59013C80.654 -3.49687 64.53 -0.209872 60.947 14.5061C59.697 19.6378 60.1842 25.0115 60.6693 30.362C60.9906 33.9063 61.3111 37.4404 61.125 40.8871C52.513 39.3501 43.208 41.7991 37.216 48.5231C31.175 55.3011 29.559 64.0491 31.536 72.1821C23.395 75.3081 16.656 82.0031 14.174 90.5871C12.097 97.7671 13.186 105.279 16.552 111.635C14.611 113.232 12.922 115.243 11.626 117.635C6.53997 127.02 10.733 137.6 17.31 144.99C23.604 152.062 31.758 157.155 40.617 160.673C29.005 176.821 22.67 197.235 19.61 216.484C17.726 228.335 16.987 240.437 17.595 252.427C17.92 258.847 18.773 265.271 19.792 271.615L19.8929 272.255C20.4939 276.122 21.0264 280.493 22.619 284.173C13.091 288.766 5.64997 297.603 2.10897 307.759C-3.55203 323.994 2.66097 342.547 15.044 353.963C18.125 356.803 21.558 359.387 25.262 361.358L28.283 363.017C27.9441 364.04 27.8327 366.443 27.7452 367.752L27.6685 368.732C27.0459 376.898 28.4666 385.823 33.292 392.582C39.001 400.577 48.369 404.03 57.964 401.933C62.199 401.007 66.164 398.759 69.061 395.553C71.237 393.144 72.355 390.591 72.522 387.986C76.081 402.915 84.156 416.486 93.813 428.277C98.785 434.347 104.173 440.023 110.077 445.194L110.471 445.543C111.051 446.062 111.68 446.647 112.351 447.27C117.257 451.829 124.35 458.421 130.226 456.126C132.278 455.324 133.955 453.651 133.909 451.289C133.762 444.012 124.16 440.168 119.098 436.173C113.169 431.494 107.497 426.414 102.224 421.008C92.6523 411.197 84.3739 400.367 75.9506 389.605L73.749 386.799C73.38 386.33 72.8 386.559 72.539 386.978C72.465 384.521 71.566 382.03 69.895 379.58C67.573 376.173 62.023 374.376 58.784 377.796L57.537 378.351C56.232 379.124 55.168 380.138 54.319 381.365L53.956 381.649C53.7649 381.793 53.538 381.955 53.2914 382.109L53.2151 382.153C53.3614 382.051 53.1985 382.079 52.9158 382.128C52.6581 382.172 52.3012 382.234 51.991 382.229L51.405 382.205L50.881 382.047C50.465 381.594 49.189 380.342 49.053 380.126C48.598 379.399 48.3359 378.728 48.0867 377.966L47.872 377.288C46.927 374.236 46.9669 370.97 47.144 367.798L47.2586 365.88C47.5235 361.147 47.4291 356.768 44.626 352.626C42.4652 349.433 39.3809 347.7 36.0209 346.11L34.7318 345.505C28.3201 342.423 23.3477 337.948 19.994 331.579C13.618 319.467 18.061 304.167 29.325 296.589C41.12 288.652 59.766 293.073 67.007 305.087C67.361 305.673 68.307 305.293 68.121 304.617C65.069 293.518 56.716 285.138 46.096 282.08C46.556 279.449 45.72 276.146 44.084 273.988C42.177 265.129 40.303 256.378 39.415 247.304C38.388 236.798 38.352 226.214 39.027 215.682C39.9438 201.349 42.9687 187.559 46.2336 173.76L48.698 163.4C54.858 165.152 61.178 166.259 67.321 166.808C74.473 167.446 81.554 167.387 88.58 166.822C94.807 183.737 94.57 202.998 86.875 219.518C84.1532 225.36 80.2374 231.124 76.2658 236.969C67.1003 250.459 57.6371 264.387 61.863 280.737C64.531 291.056 80.27 288.824 80.329 278.237C80.3893 267.581 84.1738 258.892 89.0596 249.694L90.1054 247.741C95.5851 237.494 100.225 227.382 101.767 215.724C104.007 198.789 100.497 181.302 92.11 166.496C121.985 163.38 150.9 151.553 180.07 145.199C202.315 140.354 227.239 139.305 247.589 151.123C247.962 151.339 248.257 150.798 247.92 150.556C219.564 130.105 182.84 133.008 150.325 140.215C145.116 141.37 139.86 142.651 134.57 143.941C108.19 150.372 80.9504 157.012 54.287 149.217C46.296 146.881 38.541 143.044 32.285 137.487C29.531 135.041 26.131 131.783 25.588 127.917C25.409 126.641 25.465 125.767 26.218 124.757C26.5906 124.257 27.0957 123.996 27.4385 123.819C27.8168 123.623 27.9974 123.529 27.584 123.33C36.885 127.813 44.845 114.756 35.77 109.325L35.4261 109.113C24.2485 102.032 30.002 85.8252 42.97 86.2301L43.2321 86.2346C50.5105 86.2564 52.6786 77.5533 48.612 72.6111L48.3869 72.3297C41.159 63.0212 53.521 51.7737 62.93 57.3711L63.1598 57.503C67.6081 59.9632 72.285 57.2242 73.968 52.8801C76.7438 45.7137 76.2934 38.3684 75.8399 30.971C75.6907 28.5375 75.5411 26.0984 75.506 23.6581L75.4905 22.6087C75.4656 20.2867 75.548 17.246 76.911 15.9011C80.043 12.8116 85.3277 16.4632 88.4321 18.7987L90.4298 20.3171C94.9581 23.8084 99.1961 27.6024 104.088 30.6221C109.427 33.9201 115.225 36.5421 121.114 38.6921C132.534 42.8611 144.819 44.7321 156.926 45.3231C173.3 46.1224 190.561 43.8137 207.958 41.4868C243.191 36.7744 278.978 31.9877 309.076 52.7941C319.733 60.1611 327.088 70.9331 330.883 83.2531C335.163 97.1461 333.697 111.534 337.199 125.475C338.737 131.598 349.44 132.385 350.397 125.475C350.527 124.539 350.688 123.587 350.85 122.628C351.256 120.23 351.669 117.785 351.62 115.419C351.544 111.731 350.724 107.868 350.213 104.219L349.99 102.659C349.077 96.4151 347.92 90.157 346.367 84.0471C343.045 70.9741 336.852 58.6601 327.241 49.0821C309.4 31.3021 283.294 24.0331 258.698 23.2631C242.089 22.7432 225.67 24.9303 209.249 27.1176C194.243 29.1164 179.235 31.1155 164.08 31.0491C151.039 30.9921 138.023 29.4011 125.684 25.0251C119.473 22.8221 113.587 19.7031 108.261 15.8191C102.904 11.9131 98.312 6.99813 92.577 3.59013ZM118.578 54.5781C116.779 53.8291 116.027 56.5131 117.349 57.4911C124.453 62.7431 133.173 65.0201 141.866 63.1291C144.697 62.5131 144.086 57.9481 141.181 58.0651C133.317 58.3791 125.906 57.6291 118.578 54.5781ZM291.607 65.7657C290.311 65.2647 288.941 67.0467 289.755 68.1757C293.486 73.3497 297.957 77.8747 301.778 82.9697C305.612 88.0807 308.814 93.4517 313.35 97.9987C315.784 100.439 319.929 97.9567 319.069 94.6697C315.813 82.2267 303.426 70.3337 291.607 65.7657ZM96.1019 73.7327C95.1539 72.7857 96.1079 70.8997 97.4699 71.3817C105.165 74.1067 112.918 76.4647 121.002 77.7017C125.984 78.4634 130.993 78.4186 136.007 78.3738C139.326 78.3441 142.647 78.3144 145.963 78.5187C149.33 78.7257 151.623 83.9637 147.88 85.5937C131.248 92.8347 108.658 86.2687 96.1019 73.7327ZM74.9896 99.28C73.2166 97.592 75.0606 94.714 77.3156 95.284C89.2086 98.295 100.987 101.957 113.352 102.321C119.528 102.502 125.669 102.015 131.787 101.216L134.884 100.805C139.655 100.182 144.508 99.6931 149.224 100.673C152.368 101.326 152.982 105.376 151.023 107.489C141.772 117.468 123.928 116.514 111.659 114.832C98.3356 113.004 84.8926 108.714 74.9896 99.28ZM280.182 101.687L280.075 101.681C279.266 101.683 278.835 102.921 279.453 103.447C284.735 107.943 289.893 112.926 293.644 118.808C295.466 121.663 296.988 124.707 298.09 127.913C299.291 131.411 299.68 135.037 301.395 138.345C304.269 143.889 311.971 140.792 312.358 135.375C312.943 127.204 306.118 118.016 300.71 112.448C295.095 106.666 288.178 102.72 280.182 101.687ZM236.288 107.192C235.543 106.98 235.006 108.139 235.746 108.477C254.141 116.891 268.093 130.319 278.983 147.145C280.015 148.738 281.572 149.205 283.364 148.927C284.317 148.779 284.818 148.29 285.325 147.628L285.682 147.145C286.459 146.079 286.356 144.306 285.682 143.229C274.628 125.576 256.129 112.858 236.288 107.192ZM368.572 111.808C370.253 108.961 374.71 109.534 375.597 112.726L375.725 113.004C376.204 114.092 375.986 114.315 375.093 113.699C377.305 115.521 378.306 118.235 377.63 121.153C373.978 136.913 356.127 148.167 340.565 146.618C339.207 146.483 339.022 144.814 340.253 144.316C346.24 141.892 351.554 137.955 355.827 133.124C359.98 128.428 361.727 123.055 363.961 117.384C364.799 115.255 366.103 113.722 367.94 112.885C368.183 112.549 368.395 112.191 368.572 111.808ZM373.024 134.504C377.942 130.418 385.689 134.18 384.023 140.907C382.21 148.233 374.358 153.239 367.876 156.249C361.204 159.346 354.705 159.943 347.426 159.605L347.336 159.585C349.357 167.688 350.503 176.111 352.049 184.263C354.011 194.605 355.941 204.952 357.842 215.304C359.681 225.31 362.006 235.329 363.419 245.385C364.844 255.536 366.212 265.694 367.612 275.848C369.948 292.807 371.834 309.844 373.823 326.851L374.77 334.902C376.762 351.941 378.365 369.002 374.591 385.959C371.054 401.851 363.086 416.675 353.844 429.941C344.793 442.931 334.682 455.421 323.583 466.72C302.174 488.511 275.774 505.964 244.818 509.201C231.489 510.595 217.253 509.044 204.722 504.199L203.89 503.874C191.205 498.865 175.671 490.29 172.37 476.219C170.343 467.587 179.238 460.848 187.037 464.944C190.65 466.842 193.367 469.011 196.333 471.73L196.86 472.216C199.284 474.467 200.217 475.159 203.014 476.92C208.751 480.529 213.051 482.237 219.567 483.877C231.581 486.899 244.547 486.421 256.743 482.847C282.637 475.259 302.725 455.459 319.934 435.606C329.278 424.825 338.147 413.516 344.987 400.951C352.164 387.768 355.477 373.927 355.278 358.927C355.053 342.002 352.714 325.011 351.179 308.166C349.615 290.993 348.169 273.826 346.895 256.629C345.701 240.502 345.586 224.302 345.169 208.125L345.087 205.092C344.842 196.504 344.672 187.913 344.477 179.323C344.431 177.299 344.358 175.269 344.286 173.236C344.05 166.664 343.814 160.067 344.488 153.555C344.551 152.934 345.388 152.777 345.592 153.405C346.112 155.003 346.567 156.626 346.997 158.258C347.063 158.208 347.137 158.163 347.227 158.132C352.931 156.172 358.184 152.259 362.464 148.039C366.548 144.012 368.681 138.113 373.024 134.504ZM36.792 318.206C44.688 314.342 54.046 314.956 61.933 318.618L62.4674 318.872C71.0783 323.047 82.4829 332.803 79.746 343.179C78.144 349.247 71.402 351.319 66.174 348.7C61.807 346.511 60.811 342.598 58.62 338.667C57.071 335.887 55.156 333.714 52.907 331.479C48.166 326.77 42.841 323.272 36.792 320.473C35.92 320.069 35.95 318.619 36.792 318.206Z" transform="translate(55.00003 15.00067)" fill="#000000" fill-rule="evenodd" stroke="none"></path></g></g><g transform="translate(159 186)"><g><path d="M15.9252 11.6746C25.7472 1.65261 51.3592 -8.04539 58.0782 10.4616C59.3582 13.9866 56.6332 18.7396 52.9632 19.4706C49.6471 20.1305 46.5373 19.632 43.413 19.1311C40.8749 18.7243 38.3271 18.3158 35.6512 18.5256C30.8182 18.9066 25.7772 20.5216 21.9132 23.5156C11.2112 31.8076 8.85721 45.8326 1.40021 56.3866C1.03721 56.9006 0.332206 56.6846 0.265206 56.0786C-1.43279 40.7136 5.16721 22.6506 15.9252 11.6746ZM164.471 1.74571C157.919 -0.296292 150.538 -0.493292 144.02 1.80871C140.872 2.92071 138.005 4.40171 135.378 6.45171C132.79 8.47171 131.676 10.5267 129.743 13.0307C129.356 13.5327 129.994 14.2247 130.537 14.0637C140.738 11.0477 154.631 13.0867 163.104 19.4867C166.689 22.1957 169.646 25.8837 171.372 30.0517C173.985 36.3617 174.902 42.3067 182.45 44.4907C185.823 45.4677 189.549 44.4077 192.02 41.9617L192.635 41.3517L192.843 41.141C197.439 36.3352 195.245 29.5801 190.11 26.6157C189.161 24.8407 188.283 21.8597 187.448 20.4167C185.876 17.6937 183.916 15.1357 181.798 12.8177C177.13 7.71171 171.071 3.80371 164.471 1.74571ZM156.036 44.5815C172.692 43.8015 183.053 61.9875 179.223 76.8885C178.561 79.4595 175.685 81.9835 172.909 81.6945L172.209 81.6301C171.854 81.596 171.497 81.5511 171.169 81.4605C168.533 80.7305 166.17 77.9885 166.362 75.1465L166.413 74.3184C166.801 67.2793 166.038 59.1692 157.673 57.4645C150.578 56.0185 146.617 62.8475 146.533 69.1335C146.517 70.2495 145.263 71.0285 144.276 70.4285C139.147 67.3075 138.259 61.0985 140.218 55.7515C142.701 48.9765 148.915 44.9145 156.036 44.5815ZM63.4997 61.6149C57.6307 50.8989 44.5537 44.4379 32.4327 48.4819C25.8267 50.6849 20.5927 56.2799 17.8997 62.5709C15.8467 67.3649 14.8117 75.7409 20.5707 78.5239C21.3347 78.8929 22.0987 78.8039 22.7357 78.2449C28.1577 73.4889 27.9337 65.3249 35.6637 62.6269C42.2807 60.3169 49.5447 64.6709 51.3347 71.2699L51.4015 71.5005C52.9774 76.6056 60.0783 78.726 63.8697 74.5789C66.2937 71.9279 66.9157 69.7239 67.3287 66.2279C67.6147 63.7979 65.5587 62.2109 63.4997 61.6149ZM150.214 87.9682C148.264 65.8832 117.473 73.0662 105.201 80.0942C104.352 80.5802 104.675 82.0962 105.722 82.0162C108.163 81.8301 110.587 81.5015 113.011 81.173C117.151 80.612 121.287 80.0515 125.495 80.2022C129.964 80.3642 137.1 81.2762 138.777 86.2682C140.672 91.9112 134.562 96.2222 129.979 97.5692L129.713 97.6467C125.466 98.8763 117.455 100.78 113.649 98.1962C106.243 93.1662 98.3377 104.175 104.298 110.315C111.459 117.692 126.126 113.85 134.401 110.448L134.732 110.309C143.555 106.552 151.11 98.1312 150.214 87.9682ZM43.3465 121.477C56.0075 119.94 68.3817 122.402 80.7379 124.859C85.1111 125.729 89.4821 126.598 93.8627 127.29C102.711 128.686 111.57 129.728 120.523 130.116C122.324 130.194 124.127 130.24 125.929 130.277C126.096 128.691 126.984 127.234 128.908 126.361C132.852 124.574 136.008 123.768 140.338 123.94C144.301 124.097 148.278 124.504 152.181 125.218C159.268 126.518 166.386 129.466 171.57 134.589C183.567 146.442 181.741 165.481 172.471 178.391C153.319 205.069 118.364 206.307 88.4261 205.959L85.6634 205.923C82.6154 205.879 79.4206 205.891 76.1327 205.904L76.121 205.904C50.0058 206.004 18.0177 206.126 7.01977 178.584C2.46558 167.179 3.09822 153.96 8.67421 143.021C15.3249 129.974 29.3247 123.179 43.3465 121.477ZM81.4794 137.485L78.0689 137.102C77.7892 137.07 77.5094 137.038 77.2297 137.006C68.0368 135.957 58.8485 134.909 49.6549 135.539C48.2839 135.634 46.8919 135.783 45.4969 135.988C47.1713 142.03 47.0306 149.126 47.7301 155.107C48.0005 157.42 48.3418 159.714 48.7199 161.999L50.3634 161.922C60.5285 161.371 70.7036 161.032 80.8767 160.628C80.8759 158.718 80.8864 156.807 80.9169 154.895L80.9545 152.983C80.9884 151.554 80.9853 150.072 80.9822 148.563C80.9748 144.913 80.9669 141.102 81.4794 137.485ZM99.1274 138.664C108.873 138.652 119.127 138.311 129.049 136.71C129.463 137.009 129.9 137.27 130.361 137.459L130.753 137.601C130.23 142.195 129.86 146.809 129.523 151.424L129.029 158.345L127.265 158.439C114.764 159.074 102.261 159.687 89.7565 160.254L89.3311 156.653C88.8541 152.537 88.4152 148.417 88.0313 144.292C87.8407 142.25 87.709 140.155 87.4555 138.085C91.3441 138.43 95.2347 138.669 99.1274 138.664ZM22.3597 149.574C26.3002 142.485 33.6324 138.61 41.3798 136.776C39.4864 142.644 39.3956 149.948 39.2149 155.765L39.1128 158.814C39.0769 160.004 39.0488 161.196 39.0268 162.39C32.3981 162.629 25.7374 162.918 19.1896 163.68C18.992 158.767 20.0208 153.781 22.3597 149.574ZM133.358 138.428C133.904 144.953 134.207 151.505 134.609 158.042L142.85 157.602C144.224 157.527 145.597 157.45 146.97 157.371C148.454 157.286 150.056 157.099 151.708 156.906C156.003 156.406 160.64 155.865 164.453 156.955C164.856 152.155 163.484 147.479 159.152 144.255C151.547 138.591 141.864 140.608 133.358 138.428ZM162.585 164.278C159.359 165.039 155.772 165.031 152.353 165.023C150.839 165.02 149.358 165.017 147.956 165.08C143.678 165.275 139.399 165.444 135.121 165.617C135.322 168.538 135.519 171.457 135.733 174.376C136.008 178.148 136.034 182.135 136.756 185.891C145.366 182.953 153.08 178.241 158.868 170.706C160.31 168.829 161.601 166.626 162.585 164.278ZM128.251 165.905L128.495 165.895C128.318 168.393 128.136 170.89 127.967 173.389C127.697 177.412 127.761 181.732 127.061 185.787C126.359 186.373 125.83 187.229 125.649 188.501L125.629 188.717C115.677 190.492 105.17 190.681 95.4074 190.604C95.2976 190.367 95.1879 190.129 95.0362 189.893C94.6001 189.21 94.0144 188.74 93.3688 188.448L93.4296 188.028C93.5443 187.307 93.3051 186.307 93.0891 185.404C92.9875 184.979 92.891 184.576 92.8389 184.233C92.4547 181.703 92.0855 179.17 91.7413 176.635C91.3022 173.412 90.918 170.182 90.5419 166.953C103.117 166.73 115.683 166.39 128.251 165.905ZM21.2471 173.269C20.3321 171.062 19.7204 168.691 19.4061 166.269C25.8672 166.917 32.448 167.056 38.9849 167.117C39.0069 172.956 39.2992 178.802 40.1125 184.552C40.4388 186.865 41.731 188.215 43.3585 188.777C33.9787 186.944 25.1138 182.593 21.2471 173.269ZM80.9375 167.124C71.8788 167.278 62.8162 167.397 53.7594 167.286L49.6479 167.223C50.5161 171.881 51.461 176.523 52.2463 181.212C53.0656 186.099 48.7639 189.206 45.0409 189.081C45.459 189.149 45.8761 189.22 46.2942 189.279C55.9646 190.647 65.9434 190.576 75.817 190.505C77.8197 190.491 79.8181 190.477 81.8087 190.475C81.3529 187.814 81.3567 184.909 81.3601 182.337L81.3601 182.337C81.3614 181.325 81.3627 180.365 81.3358 179.491L81.3177 179.012C81.1371 175.047 81.0104 171.086 80.9375 167.124Z" transform="translate(50.00019 64.99949)" fill="#000000" fill-rule="evenodd" stroke="none"></path></g></g><g transform="translate(123 338)"></g><g transform="translate(47 241)"><g><path d="M409.463 3.8448C410.287 3.9658 411.111 4.0948 411.934 4.2318C418.27 5.2808 419.246 15.2398 413.729 17.9668C409.483 20.0668 406.817 24.2488 407.954 29.0788C408.779 32.5828 407.27 35.3698 404.887 36.8078C404.153 59.4058 400.438 84.7238 382.858 101.261C342.399 128.036 302.322 95.3878 310.705 43.7638C310.105 43.3428 309.577 42.8078 309.189 42.1368C308.911 41.6868 308.672 41.2368 308.449 40.7878C307.565 40.0648 301.03 37.7038 292.541 38.8798C284.052 40.0568 281.355 44.0148 277.062 48.3008C276.399 49.5928 275.264 50.5688 273.479 50.9698C270.103 69.9788 266.632 91.0678 252.071 105.304C215.602 139.383 152.661 111.085 154.989 59.2428C142.316 57.0798 152.882 42.2078 132.833 38.8798C129.215 37.6678 125.792 35.3518 123.536 32.6958C93.5503 29.4738 64.0323 30.9178 35.0393 41.3338C33.2654 42.076 31.4106 42.7524 29.5642 43.4257C19.2827 47.175 9.2641 50.8284 14.9483 65.2098C14.7313 69.9788 8.89832 72.8158 5.46132 69.2928L5.45832 69.2958C5.45332 69.2898 5.45032 69.2828 5.44632 69.2768C-14.0668 34.2407 22.9785 28.378 51.445 23.8729C52.0721 23.7736 52.6952 23.675 53.3133 23.5768C68.6263 20.2758 84.2953 18.8808 99.9463 19.2088C101.76 19.2865 103.703 19.3157 105.697 19.3457C111.762 19.4369 118.302 19.5352 123.121 21.0268C123.147 21.0348 123.172 21.0408 123.197 21.0478C129.862 0.847801 268.445 -3.8812 276.461 29.6238C280.189 29.5282 283.582 29.8068 286.814 30.0721C292.712 30.5563 298.071 30.9962 303.94 29.0368C306.664 4.6888 372.671 -4.4282 401.203 1.9928C403.191 2.1778 405.182 2.5208 407.187 3.0298C408.065 3.1988 408.82 3.4798 409.463 3.8448ZM349.405 100.25C360.918 101.245 373.4 98.3638 380.133 89.3188C391.579 73.6748 394.672 53.4838 394.854 34.9018C391.884 31.9349 390.53 28.6015 389.288 25.5433C386.823 19.475 384.798 14.4901 371.456 15.6018C335.435 17.9104 329.443 32.0442 325.678 40.9243C323.493 46.076 322.059 49.4595 315.945 47.7398C316.759 69.6588 324.574 97.8598 349.405 100.25ZM261.862 67.9668C247.202 136.62 166.924 120.29 158.491 58.4038C166.278 52.9078 164.227 39.3368 173.901 34.4198C188.988 24.7808 207.786 25.032 224.972 25.2616C225.252 25.2654 225.531 25.2691 225.81 25.2728C248.065 26.8018 254.407 36.0208 265.839 46.0788C265.289 52.7968 263.703 60.7588 261.862 67.9668Z" transform="translate(-12.99972 8.999499)" fill="#000000" fill-rule="evenodd" stroke="none"></path></g></g></g></g></svg>