<?xml version="1.0" standalone="no"?>
<svg viewBox="-350 -160 1500 1500" xmlns="http://www.w3.org/2000/svg" style="width: 585px; height: 585px; justify-content: center; align-self: center; transform: scale(1, 1);"><g transform="rotate(0 421.3642044067383 590.8218841552734)"><g transform="translate(0 459)"><path d="M688.718 327.928C685.576 319.302 690.164 310.698 692.709 302.353C701.75 273.412 711.621 244.47 725.587 217.48C730.878 208.452 722.174 197.376 712.089 199.922C694.824 202.34 677.021 200.415 659.726 199.348C653.401 182.984 636.521 176.196 623.234 166.772C608.157 157.362 593.491 146.554 577.811 138.304C576.939 130.509 567.487 128.577 561.707 134.153C545.832 124.278 526.795 126.112 509.778 119.642C496.848 98.7414 495.878 76.7643 492.454 56.6009C490.962 47.8117 492.547 39.3313 486.541 31.4949C466.366 3.11989 386.65 -9.18311 357.259 7.63189C341.438 -2.23511 341.057 15.6349 338.544 26.6639C335.751 32.1819 334.24 38.4309 334.707 45.0149C317.713 80.5099 278.834 96.5569 244.015 109.556C239.647 105.353 233.404 105.884 229.248 109.362C199.068 115.923 169.777 127.456 144.491 145.464C115.763 153.866 95.5315 177.231 80.9015 202.284C79.2895 204.925 78.9095 207.618 79.3805 210.091C34.3915 276.038 12.9195 354.987 9.90347 434.725C-19.0275 452.088 23.6545 608.066 33.5905 640.448C33.6005 640.444 33.6105 640.44 33.6205 640.435C40.0665 651.847 47.3855 684.411 63.5175 681.892C74.5835 694.404 92.2185 691.944 107.235 692.905C104.789 702.287 105.991 713.022 108.902 722.293C112.345 733.329 129.241 733.703 131.637 721.671C281.181 750.725 434.62 727.543 585.845 731.904C629.569 732.214 673.289 733.567 716.908 736.682C723.05 737.12 729.277 730.844 728.859 724.729C719.481 624.957 710.674 493.706 700.187 394.911C697.7 372.38 695.733 349.602 688.718 327.928Z" transform="translate(54.99983 -33.00009)" fill="#FFFFFF" stroke="none"></path><path d="M348.011 0.789763C348.44 -0.380237 350.188 -0.225237 350.221 1.08876C350.91 29.1418 343.926 63.4228 321.478 82.3718C309.955 92.0987 294.72 96.5503 280.729 101.666L279.151 102.248L254.433 111.456C253.501 111.803 252.558 112.177 251.61 112.553C245.892 114.82 239.981 117.164 235.014 114.205C239.7 125.825 243.634 137.765 249.341 148.964C256.445 162.905 265.034 175.66 275.546 187.261C317.192 233.22 383.102 247.239 442.249 233.773C472.706 226.838 502.343 213.696 523.122 189.726C538.914 171.506 547.987 147.052 550.125 122.931C549.5 123.031 548.845 123.027 548.172 122.879C540.688 121.246 533.133 117.235 526.548 113.301L525.914 112.921C519.578 109.107 512.974 104.736 508.427 98.8098C503.911 92.9249 499.172 73.7276 499.172 73.7276C497.881 66.513 496.669 52.1398 496.877 44.8468C496.896 44.1588 499.949 43.7528 500.275 44.4678C503.096 50.659 504.008 64.2625 506.185 70.7063L506.625 71.9928C508.95 78.7218 510.944 86.9148 515.765 92.3548C524.816 102.57 538.472 106.894 550.661 112.017C551.536 100.472 569.976 100.741 569.742 112.782C569.729 113.435 569.7 114.085 569.677 114.736C571.131 115.535 572.53 116.45 573.837 117.332L575.113 118.198C579.941 121.482 584.806 124.603 589.947 127.389C599.9 132.784 610.437 137.061 620.635 141.958C630.952 146.913 640.601 152.816 649.61 159.881C653.841 163.198 657.898 166.732 661.747 170.486L662.791 171.516C666.454 175.164 671.22 179.243 673.307 184.037C673.767 185.094 676.071 187.552 677.322 187.634C696.698 188.905 716.032 190.698 735.287 193.388C740.272 194.084 742.242 196.653 740.4 200.808C734.068 215.086 709.279 272.107 702.687 287.41C703.08 293.153 703.001 299.416 702.922 305.668L702.922 305.671C702.847 311.671 702.772 317.639 703.111 323.132C704.126 339.542 705.455 355.946 707.048 372.31C712.748 430.847 721.389 489.099 729.197 547.38C733.105 576.548 736.668 605.759 740.185 634.976C741.961 649.741 743.468 664.521 744.628 679.349C745.111 685.527 745.549 691.71 745.936 697.895L746.269 703.382C746.317 704.106 746.372 704.826 746.427 705.543C746.893 711.662 747.337 717.501 743.513 722.806C741.576 725.494 737.152 727.008 734.605 723.954C731.403 720.115 730.213 717.247 729.907 712.204C729.673 708.344 729.617 704.466 729.441 700.602C729.061 692.226 728.583 683.854 728.023 675.487C726.906 658.761 725.631 642.038 724.154 625.34C718.977 566.787 709.138 508.675 702.591 450.266C699.291 420.82 696.947 391.319 695.706 361.71C695.085 346.924 694.86 332.139 695.006 317.34C695.061 311.812 695.323 306.31 695.702 300.82C685.894 323.101 675.583 345.167 664.803 366.94L662.248 372.096C655.416 385.858 648.401 399.671 640.19 412.645L638.779 414.857C635.453 420.127 630.909 428.436 624.843 430.099C621.728 430.953 618.104 430.734 614.674 430.527C613.454 430.453 612.26 430.381 611.123 430.359C606.824 430.277 602.52 430.259 598.224 430.085C593.405 429.891 588.807 429.258 584.15 428.002C583.376 427.794 582.644 427.568 581.977 427.28C577.285 434.958 569.313 440.806 561.162 444.213C554.633 446.942 547.79 448.813 540.936 450.544L538.517 451.151C531.169 452.982 522.763 453.852 518.619 460.948L517.656 462.592C514.575 467.827 511.619 472.424 506.52 476.177C501.031 480.218 494.528 482.759 488.05 484.737C481.417 486.761 474.629 488.311 467.894 489.971L466.059 490.427C461.613 491.54 457.127 492.561 452.707 493.772C450.822 494.288 448.903 494.82 447.053 495.456C444.887 496.2 443.313 497.362 441.604 498.626C440.068 503.992 433.503 506.906 428.105 506.532C425.27 506.336 422.727 505.374 420.413 503.964C416.374 507.402 411.927 510.482 407.81 513.667C402.045 518.127 396.257 522.556 390.437 526.944C378.437 535.989 366.346 544.914 354.129 553.663C332.444 569.193 310.29 584.012 287.757 598.282C278.362 604.232 268.904 610.172 259.353 615.97L260.372 616.348L262.394 617.112C267.173 618.896 272.498 621.779 273.424 627.354C274.158 631.776 271.688 634.824 267.322 635.364C262.133 636.005 258.095 632.339 254.864 628.839C253.438 627.296 251.842 625.862 250.476 624.273C249.919 623.624 249.491 622.876 249.114 622.092C239.688 627.646 230.162 633.013 220.485 638.032L218.063 639.28C194.066 651.551 170.709 664.995 146.508 676.917C140.195 680.027 132.498 683.391 124.475 685.687C126.604 693.939 126.571 702.999 126.625 711.374C126.676 719.536 113.705 719.497 113.979 711.374L114.111 707.451C114.347 700.855 114.733 694.007 116.298 687.589C92.6592 691.509 69.0446 682.989 64.6478 680.431C59.7948 677.609 55.3898 673.093 51.7238 668.904C43.8788 659.937 38.4348 649.189 33.6048 638.376C23.2588 615.22 15.9288 590.468 10.5698 565.714C-9.18718 474.448 -0.689184 376.766 31.3958 289.28C39.4118 267.421 48.8758 246.044 59.7208 225.441L61.0674 222.894C71.8895 202.519 83.9174 182.222 99.1958 164.884C115.11 146.825 134.741 132.78 156.115 121.878C166.546 116.558 177.279 111.947 188.249 107.861C190.011 107.204 191.785 106.615 193.563 106.054C204.995 98.7658 218.869 91.7938 232.748 92.0678C233.691 92.0848 234.455 92.4428 235.025 92.9818C235.694 93.0988 236.363 93.2408 237.033 93.4358C238.512 93.8648 240.074 95.4858 239.862 97.1508L239.79 97.7047C239.751 97.9753 239.701 98.2368 239.617 98.4918C240.113 98.5658 240.6 98.6838 241.077 98.8468C254.356 95.0968 267.421 89.3618 280.379 84.7358L283.33 83.6937C294.183 79.8904 305.317 76.1625 314.22 68.6358C323.077 61.1478 329.737 51.4488 334.552 40.9638C340.484 28.0458 343.14 14.0518 348.011 0.789763ZM221.874 101.489C224.675 100.955 227.479 100.4 230.283 99.7718C231.301 99.9118 232.314 100.116 233.319 100.38C231.826 101.712 230.736 103.693 230.394 105.741C229.908 105.821 229.457 106.136 229.355 106.637C223.462 135.816 240.848 166.587 258.475 188.558C264.095 195.564 270.371 202.056 277.135 208.026C275.934 208.247 274.776 208.628 273.609 209.027L272.742 209.321C271.587 209.713 270.439 210.112 269.313 210.588C265.749 212.093 263.466 214.407 262.399 218.252C260.701 224.37 265.479 230.556 271.788 230.577C275.083 230.589 278.142 229.463 280.301 226.892C281.192 225.83 281.993 224.695 282.778 223.55L284.024 221.73C284.722 220.692 285.331 219.686 285.829 218.505C286.2 217.626 286.389 216.691 286.546 215.745C300.831 226.62 316.849 235.29 333.55 241.359C365.941 253.128 401.28 255.195 435.14 249.563C468.336 244.042 502.27 231.062 526.826 207.437C550.468 184.689 566.205 154.411 569.226 121.821C574.025 126.989 579.285 131.765 585.17 135.56C594.47 141.558 604.668 145.791 614.575 150.646C624.48 155.5 634.016 161.137 642.689 167.978C647.071 171.435 651.24 175.175 655.186 179.12C657.563 181.499 659.723 184.259 662.09 186.738C652.856 186.253 643.616 185.861 634.373 185.53C632.251 185.454 630.107 185.34 627.953 185.225C622.015 184.908 616.002 184.587 610.16 185.058C602.428 185.681 597.041 189.706 592.993 196.152C583.888 210.652 576.656 226.816 569.403 242.388L566.606 248.371C564.45 252.998 562.318 257.672 560.267 262.391C558.698 261.26 556.937 260.302 555.327 259.467L554.154 258.862C550.86 257.167 547.342 256.791 543.71 256.622L542.717 256.581C539.211 256.445 538.115 260.653 540.066 262.982C542.209 265.542 543.935 268.257 546.447 270.487C549.131 272.868 551.149 275.545 554.266 277.142C550.974 285.909 548.182 294.837 546.266 303.933C542.609 304.659 538.967 305.45 535.343 306.302C521.729 309.504 508.321 313.515 494.964 317.642C490.72 318.954 486.41 320.212 482.161 321.623C483.013 320.469 483.565 319.034 483.645 317.387C483.846 313.266 481.816 309.231 479.845 305.314C478.941 303.519 478.051 301.75 477.394 300.009L476.819 298.524C474.871 293.603 472.604 288.939 470.463 284.073C469.447 281.765 465.285 282.288 464.894 284.801C463.888 291.267 463.494 297.073 464.513 303.56C465.495 309.816 466.161 318.143 470.996 322.626C472.035 323.59 473.201 324.175 474.392 324.466C469.33 326.536 464.476 329.041 460.063 332.38C450.175 339.864 441.962 349.846 434.208 359.679L429.728 365.379C423.664 373.077 417.832 380.946 412.088 388.88C408.272 388.848 404.636 390.218 401.49 392.449C400.379 391.212 398.814 390.394 397.069 390.452C391.215 390.644 387.02 393.373 381.994 396.116L376.623 399.044C373.042 400.995 369.459 402.942 365.874 404.884C355.641 410.423 345.349 415.852 335.105 421.37C314.66 432.385 293.979 443.001 273.118 453.208C243.545 467.679 212.692 479.9 181.284 490.11C182.147 485.267 182.138 480.013 182.365 474.949C182.93 462.372 183.361 449.816 183.593 437.228C183.819 425.013 183.779 412.696 183.078 400.498L183.004 399.162C182.409 387.981 182.226 375.664 176.948 365.624C176.511 364.792 175.332 365.076 175.063 365.87C171.435 376.591 170.202 388.347 168.459 399.505C167.8 403.728 167.22 407.975 166.697 412.233C166.299 412.112 165.882 412.005 165.441 411.909C162.595 411.298 159.722 411.134 156.835 411.491C153.648 411.887 152.437 416.51 156.025 417.477L156.591 417.642C159.946 418.695 162.541 420.836 165.55 422.45C165.083 427.047 164.675 431.648 164.311 436.236C163.363 448.146 162.554 460.04 161.92 471.972C161.618 477.657 161.115 483.366 160.957 489.055C160.886 491.609 161.242 493.925 161.859 496.157C156.248 497.823 150.625 499.431 144.992 500.974L144.238 501.181C128.883 505.416 114.002 510.463 101.245 519.381C96.8818 522.432 98.0291 526.809 102.147 524.556C113.992 518.074 126.841 513.01 140.094 510.452L149.374 508.68C154.284 507.732 159.18 506.75 164.063 505.729C164.368 507.168 164.906 508.534 165.854 509.992L170.289 516.814C172.722 520.556 177.622 521.73 181.274 518.911C184.989 516.044 184.938 511.16 182.031 507.754L177.744 502.732C188.345 500.28 198.875 497.534 209.326 494.321C227.855 488.623 245.821 481.096 263.643 473.431L273.911 469.005C295.014 459.917 315.562 449.777 335.91 439.116C347.302 433.148 358.551 426.929 369.767 420.638C375.368 417.495 380.96 414.337 386.547 411.172C388.104 410.29 389.666 409.466 391.195 408.626C390.071 414.532 390.115 420.913 390.281 427.01L390.387 430.628C390.628 438.95 391.42 447.423 393.06 455.585C395.776 469.112 401.227 482.224 409.629 493.224C410.145 493.9 410.678 494.583 411.225 495.267C408.975 496.956 406.773 498.72 404.528 500.4C399.138 504.433 393.723 508.431 388.283 512.398C377.898 519.97 367.409 527.396 356.828 534.691C335.662 549.284 314.182 563.462 292.471 577.23C258.766 598.602 224.516 619.112 189.525 638.279C189.269 637.03 189.063 635.777 188.979 634.548L188.961 634.339C188.408 628.887 180.962 626.232 177.957 631.563C175.177 636.491 174.02 640.972 174.681 646.307C169.448 649.097 164.201 651.861 158.934 654.586L157.702 655.226C145.791 661.442 133.732 668.422 121.031 672.793C114.608 675.003 111.162 676.208 98.4327 676.208C85.7031 676.208 74.9548 670.733 71.7928 668.208C67.9948 665.176 64.5118 661.976 61.3738 658.243C54.9868 650.651 49.8138 642.003 45.9068 632.897C37.942 614.335 32.4342 594.509 27.7086 574.866L26.9058 571.501C23.2678 556.122 20.4118 540.521 18.3208 524.806C21.0578 525.252 23.6258 525.44 26.5288 525.014C29.8598 524.525 33.1488 523.857 36.4178 523.052C45.2018 520.89 41.2818 506.702 32.6878 509.521C29.7098 510.497 26.7068 511.361 23.6538 512.071C21.2998 512.619 19.1998 513.524 17.0528 514.489C14.2588 489.3 13.4668 463.878 14.7508 438.654C16.2688 408.859 20.5548 379.243 27.4058 350.224C28.1238 350.628 29.0228 350.758 30.0688 350.415C36.9698 348.155 43.9288 345.587 51.0858 344.268C54.1558 343.702 56.0158 340.455 56.1648 337.597C56.2318 336.302 55.8668 335.21 55.2198 334.106C53.7808 331.648 50.2468 329.886 47.4078 330.927C40.7088 333.384 34.7348 336.253 29.6888 340.92C32.5428 329.784 35.7688 318.741 39.3738 307.821C53.4048 265.316 73.0098 223.425 99.3658 187.1C114.624 166.071 133.089 148.915 155.488 135.72C166.575 129.189 178.204 123.613 189.876 118.214C200.877 113.126 211.219 107.2 221.874 101.489ZM210.565 148.071C213.141 145.751 217.885 146.448 218.721 150.224C219.891 155.512 220.603 161.47 219.837 166.838C219.422 169.747 219.266 173.014 218.122 175.725C216.892 178.64 214.526 180.882 212.297 183.074C207.847 187.45 198.466 186.003 197.274 179.108L197.123 178.262C197.079 178.026 197.035 177.788 196.991 177.55C196.421 174.496 195.821 171.279 196.644 168.279C197.314 165.839 198.812 163.351 200.051 161.088L200.312 160.606C202.794 155.984 206.663 151.583 210.565 148.071ZM573.588 159.331L572.656 159.322C568.721 159.316 568.508 164.464 571.784 165.767C574.816 166.973 577.737 168.648 580.242 170.746C580.371 170.854 580.5 170.963 580.629 171.071C583.542 173.52 586.264 175.808 590.38 174.855C592.459 174.373 594.01 172.203 593.994 170.109C593.924 161.224 580.779 159.473 573.588 159.331ZM609.122 193.957C601.043 195.525 597.75 205.497 594.348 211.997C586.319 227.337 578.935 242.958 571.519 258.599C569.236 263.41 567.013 268.258 564.77 273.097C564.633 273.476 564.457 273.849 564.25 274.218C559.655 284.111 554.923 293.939 549.392 303.33C554.454 302.382 559.542 301.574 564.649 300.938C564.438 297.006 566.601 291.987 568.288 288.073C568.663 287.201 569.016 286.384 569.312 285.646L569.448 285.305C571.479 280.117 573.608 271.945 578.836 269.253C580.578 268.357 582.441 269.48 582.575 271.398C582.874 275.716 579.753 280.506 577.033 284.68C576.156 286.026 575.321 287.308 574.656 288.489C573.005 291.421 571.396 294.366 569.828 297.343C569.24 298.457 568.749 299.552 568.146 300.534C570.78 300.249 573.417 299.995 576.061 299.81L577.784 299.692C587.586 299.046 597.997 298.861 606.853 303.695C615.07 308.178 619.27 317.749 614.756 326.464C609.132 337.321 596.748 338.76 585.858 339.64C572.256 340.737 558.623 342.718 545.117 344.65C531.147 346.648 517.992 351.798 504.23 354.445C502.95 354.691 502.153 353.017 503.327 352.302C514.182 345.694 527.38 342.058 539.516 338.354L540.498 338.054C547.081 336.032 553.515 333.722 560.325 332.575C566.936 331.462 573.588 330.56 580.256 329.874L580.903 329.814C581.713 329.746 582.661 329.688 583.706 329.624C592.138 329.11 606.887 328.21 606.183 318.539C605.659 311.345 593.965 310.103 588.627 310.017C564.153 309.625 539.503 316.121 516.244 323.081L511.051 324.638C501.527 327.503 491.99 330.452 482.645 333.811C472.055 337.617 463.712 343.552 455.999 351.675C447.447 360.682 439.164 369.892 430.292 378.595C424.699 384.082 419.034 389.471 413.323 394.816C412.033 396.486 411.001 398.303 410.286 400.66C409.078 404.642 409.356 408.343 409.812 412.433C410.962 422.762 411.216 433.198 412.657 443.495C413.993 453.034 415.861 462.923 419.822 471.772C421.39 475.276 423.432 478.718 425.756 481.796L427.632 484.235C428.45 485.295 429.365 486.454 430.326 487.545C431.736 485.825 433.776 484.706 436.147 484.986C441.186 485.579 445.147 485.437 450.09 484.279C453.916 483.384 457.712 482.335 461.521 481.364C469 479.456 476.549 477.72 483.952 475.529L485.224 475.145C490.741 473.453 496.26 471.334 500.852 467.772C506.187 463.633 507.828 457.662 511.78 452.499C520.218 441.474 538.452 441.705 550.798 438.685C561.29 436.119 571.387 432.07 578.648 424.458L579.072 424.004C578.75 422.646 579.272 421.113 580.534 420.409L580.809 420.256C581.301 419.981 581.831 419.867 582.351 419.878C583.025 418.888 583.675 417.866 584.266 416.778C584.752 415.881 585.967 416.541 585.808 417.427C585.713 417.956 585.581 418.472 585.456 418.989C591.537 417.425 598.134 417.471 604.424 417.515C605.41 417.522 606.388 417.529 607.355 417.53L616.622 417.497C618.226 417.478 620.616 417.397 620.829 417.301L621.047 417.204C621.155 417.157 621.214 417.133 621.241 417.122L621.244 417.121C621.257 417.116 621.261 417.115 621.261 417.114C621.261 417.114 621.258 417.115 621.252 417.116C621.201 417.126 620.945 417.181 621.208 416.832C621.653 416.241 622.089 415.643 622.519 415.04C624.055 412.891 625.508 410.677 626.932 408.443C611.413 412.396 595.337 414.856 579.491 416.907C562.491 419.11 545.267 420.638 528.115 420.654C523.387 420.659 523.43 413.521 528.115 413.342C546.277 412.649 564.344 411.687 582.384 409.36C591.713 408.155 601.003 406.644 610.241 404.876C613.807 404.195 617.365 403.471 620.915 402.707L623.575 402.126C625.244 401.757 629.96 401.226 632.26 399.683C632.712 398.906 633.164 398.131 633.612 397.355C633.412 394.874 627.653 394.954 625.396 394.985L625.393 394.986L625.386 394.986C625.167 394.989 624.983 394.991 624.84 394.991C621.886 394.985 618.933 394.998 615.977 395.011L615.974 395.011L615.956 395.012L615.952 395.012L615.935 395.012L615.931 395.012L615.913 395.012L615.91 395.012L615.892 395.012L615.888 395.012C614.266 395.019 612.645 395.027 611.023 395.031C602.302 395.056 593.582 394.986 584.86 394.916L584.857 394.916L583.39 394.904C578.678 394.865 573.962 394.795 569.244 394.724C555.53 394.519 541.803 394.313 528.123 394.898C523.659 395.088 521.314 387.929 525.726 386.046C545.204 377.73 566.826 375.923 587.624 373.366C598.561 372.023 609.504 370.471 620.196 367.751L622.839 367.078C629.556 365.356 636.973 363.257 642.629 359.154C634.128 355.715 623.561 356.109 614.749 355.622L614.075 355.583C601.736 354.825 589.375 354.437 577.013 354.419C551.719 354.384 526.417 355.28 501.151 356.479C500.517 356.509 500.386 355.508 501.002 355.374C526.971 349.708 553.364 346.978 579.94 346.558C592.317 346.362 604.7 346.537 617.066 347.084L621.604 347.294C632.148 347.748 643.847 347.871 652.669 354.238C654.014 355.208 654.723 356.447 654.834 357.758C666.665 334.175 677.592 310.099 688.563 286.183C697.092 267.587 705.303 248.835 714.143 230.384L717.005 224.415C720.837 216.45 724.763 208.484 729.122 200.808C712.821 198.629 696.429 197.116 680.027 195.958C665.081 194.901 616.317 192.562 609.122 193.957ZM616.128 246.098C622.535 237.376 626.787 227.358 628.5 216.669C630.265 205.657 614.751 203.423 613.319 214.614L613.274 214.894C610.601 217.628 608.263 221.586 606.74 224.299L605.734 226.109C602.333 232.29 599.549 239.663 604.064 246.098C607.255 250.647 612.908 250.481 616.128 246.098ZM109.582 250.653C111.47 250.52 113.369 250.772 115.264 251.023C116.058 251.128 116.851 251.233 117.643 251.31L120.497 251.587C126.38 252.172 131.896 252.894 137.506 255.288C147.858 259.706 142.298 276.347 131.906 275.965C124.225 275.683 117.657 272.384 111.171 268.544C105.501 265.187 102.025 260.987 98.1962 255.716C96.9282 253.97 98.6952 252.013 100.422 251.837C103.464 251.527 106.539 250.866 109.582 250.653ZM405.615 285.02C395.269 284.602 384.942 284.14 374.609 283.46L374.416 283.453C371.006 283.409 370.761 288.399 373.799 289.445C383.778 292.885 393.669 296.526 403.559 300.214C413.57 303.946 417.599 285.505 405.615 285.02ZM253.009 298.981C254.215 298.598 255.407 298.193 256.594 297.789C262.056 295.934 267.392 294.121 273.274 294.728C275.177 294.923 276.54 296.776 275.501 298.606C272.108 304.577 266.59 307.948 261.159 311.942L260.68 312.296C254.735 316.718 248.352 320.747 241.887 324.376C230.756 330.622 220.781 312.745 232.022 307.499C238.786 304.342 245.891 301.243 253.009 298.981ZM626.931 375.691C635.709 373.08 645.679 369.929 652.15 363.075C647.358 372.482 642.405 381.798 637.237 390.987C636.333 390.257 635.298 389.657 634.19 389.225C629.549 387.41 624.085 387.471 618.902 387.529C617.22 387.547 615.568 387.566 613.984 387.52C605.102 387.262 596.222 387.07 587.337 386.909C579.633 386.771 571.912 386.714 564.19 386.618C574.398 384.933 584.691 383.62 595.064 382.152C605.799 380.632 616.523 378.784 626.931 375.691ZM318.345 387.962C317.509 384.952 321.254 382.963 323.437 384.997C327.799 389.061 332.36 392.829 336.632 396.996L336.919 397.28C339.978 400.354 344.429 406.278 340.45 410.256C335.352 415.354 328.253 407.79 325.518 403.848C322.049 398.848 319.968 393.809 318.345 387.962ZM70.8644 412.917C69.3924 412.594 67.7594 414.235 68.7474 415.671C70.6114 418.383 72.4814 421.37 74.7564 423.765C76.936 426.058 79.8445 427.921 82.5494 429.704L83.6934 430.464C89.8844 434.627 96.9794 439.638 104.24 441.588C108.154 442.64 112.301 440.874 114.394 437.456C115.174 436.183 115.415 434.968 115.56 433.574L115.622 432.918C115.865 430.111 113.797 426.304 111.168 425.155C104.591 422.281 97.3324 421.086 90.5364 418.706C87.2924 417.569 84.1224 415.917 80.8474 414.921C77.6494 413.947 74.1294 413.634 70.8644 412.917ZM207.607 441.7C211.957 434.081 222.268 427.272 231.266 427.946C244.777 428.958 247.534 447.15 234.453 451.491C226.634 454.085 215.877 451.421 209.037 447.151C207.193 446.001 206.517 443.609 207.607 441.7ZM607.069 451.653C606.611 449.361 603.763 448.519 601.904 449.552C594.474 453.678 589.25 461.519 586.407 469.389C585.323 472.393 586.68 475.674 588.659 477.905C590.31 479.767 592.442 480.413 594.848 480.468C597.885 480.538 600.909 478.757 602.406 476.134C604.799 471.942 605.927 468.118 606.845 463.412C607.244 461.366 607.992 459.093 607.992 457.001C607.992 455.255 607.41 453.36 607.069 451.653ZM641.028 462.723C641.264 461.69 642.868 461.7 643.108 462.723C645.297 472.046 645.246 482.086 645.889 491.644L645.963 492.704C646.734 503.245 647.382 513.815 647.844 524.374C648.751 545.149 649.835 565.925 651.05 586.684C651.653 596.978 652.299 607.271 652.988 617.561C655.146 616.358 657.369 615.302 659.673 614.37C663.125 612.975 666.486 612.815 670.195 612.853C674.712 612.899 678.113 616.872 677.515 621.297C676.863 626.116 672.62 628.181 668.214 627.493C663.334 626.729 658.433 625.546 653.506 625.056C654.055 633.012 654.622 640.966 655.223 648.915C656.02 659.44 657.059 669.952 657.789 680.481C657.859 681.485 657.934 682.491 658.011 683.5C660.949 681.972 664.069 681.19 667.605 680.227L668.525 679.969C668.936 679.851 669.349 679.73 669.764 679.608C674.533 678.204 679.532 676.732 683.903 679.908C687.097 682.229 687.735 686.049 685.089 689.11C681.501 693.264 676.374 692.982 671.366 692.707C670.775 692.674 670.185 692.642 669.599 692.617L666.618 692.508C663.808 692.398 661.216 692.218 658.619 691.509C659.096 698.368 659.347 705.253 658.506 712.012C658.051 715.665 653.242 716.624 651.969 712.896C648.644 703.157 647.957 692.654 646.74 682.453C645.604 672.926 644.913 663.329 644.169 653.759L643.943 650.889C642.269 629.835 640.93 608.77 639.952 587.673C638.973 566.579 638.385 545.489 638.151 524.374C638.045 514.787 638.204 505.165 638.579 495.579L638.698 492.704C639.13 482.845 638.828 472.383 641.028 462.723ZM679.618 494.911C676.316 492.968 671.267 496.248 672.732 500.204C673.976 503.562 675.13 507.193 676.831 510.356C678.638 513.717 681.709 516.843 684.2 519.72L684.502 520.064C688.832 524.922 697.384 531.567 703.834 526.364C710.612 520.897 702.788 511.473 698.048 507.663L696.771 506.652C694.186 504.563 691.729 502.28 689.033 500.353C686.1 498.257 682.727 496.74 679.618 494.911ZM479.701 507.779C479.516 506.684 480.317 505.839 481.43 506.05C487.857 507.268 493.793 510.372 499.312 513.94C502.272 515.854 505.127 517.956 508.08 519.889C511.728 522.275 513.094 524.246 513.633 528.626C513.989 531.516 511.29 534.156 508.815 534.954C502.07 537.129 494.341 529.991 489.771 525.354L489.565 525.145C484.781 520.269 480.835 514.503 479.701 507.779ZM261.593 511.496C258.927 509.867 255.983 513.062 257.424 515.665C262.905 525.57 269.838 532.735 279.967 537.867C284.512 540.17 288.768 538.671 291.743 534.78C292.592 533.669 292.776 532.343 292.878 531.007L292.918 530.435C293.175 526.654 290.056 523.15 286.599 522.136C278.057 519.631 269.198 516.144 261.593 511.496ZM128.919 574.493C130.32 570.693 124.972 569.279 122.921 571.964C119.068 577.008 114.214 580.087 109.726 584.446L109.352 584.804C105.18 588.736 99.2284 592.479 96.8087 597.642C94.8247 601.874 94.9637 606.759 98.4327 610.228C101.486 613.28 107.311 614.495 111.019 611.852C122.513 603.655 124.368 586.831 128.919 574.493ZM603.308 586.164C606.969 584.586 616.51 581.518 619.338 585.149C619.47 585.282 619.583 585.427 619.674 585.587C620.367 586.793 620.47 588.492 619.674 589.688C616.379 594.64 612.947 598.336 608.262 601.86L607.737 602.251C602.637 606 597.846 610.404 591.632 612.095C583.019 614.439 577.003 603.655 583.052 597.358C587.925 592.286 595.365 589.652 601.822 586.823L603.308 586.164ZM413.322 604.267C416.813 602.326 420.419 606.939 417.582 609.788L413.346 614.025C409.415 617.976 405.589 621.969 402.224 626.471L401.409 627.571C396.867 633.75 392.023 640.91 384.581 643.22C375.579 646.013 366.928 635.048 372.141 627.038C376.695 620.038 385.464 617.397 393.024 614.503C400.176 611.765 406.636 607.984 413.322 604.267ZM474.602 656.365C481.06 655.456 486.649 657.423 492.563 659.504C493.057 659.678 493.555 659.853 494.055 660.027L494.581 660.21C501.172 662.485 510.789 664.06 514.167 670.806C516.205 674.874 514.622 680.276 509.826 681.48C503.422 683.086 497.576 679.391 492.135 675.953C491.122 675.313 490.124 674.682 489.139 674.096L488.809 673.901C482.747 670.35 476.49 667.365 472.619 661.24C471.586 659.606 472.482 656.664 474.602 656.365ZM204.417 680.853C202.812 680.644 201.733 682.318 201.605 683.665C201.594 683.775 201.583 683.886 201.573 683.998C201.404 685.748 201.216 687.692 201.682 689.386C202.191 691.235 203.568 692.938 204.781 694.464L205.579 695.478C208.395 699.03 211.517 702.1 215.705 704.021C221.018 706.458 227.167 705.14 229.614 699.333C231.941 693.809 228.879 687.894 223.26 686.101C220.265 685.146 217.083 684.543 214.164 683.376C212.368 682.658 210.814 681.517 208.883 681.197C207.42 680.953 205.896 681.045 204.417 680.853ZM620.592 684.845C619.608 682.424 616.499 680.154 613.87 682.11C606.448 687.635 601.104 698.557 601.389 707.75C601.662 716.566 612.955 719.439 617.673 712.161C622.226 705.136 623.822 692.79 620.592 684.845Z" transform="translate(47.99989 -20.00006)" fill="#000000" fill-rule="evenodd" stroke="none"></path></g><g transform="translate(225 0)"><g><g><path d="M451.63 368.844C447.666 362.982 438.121 320.442 432.024 313.899C432.484 288.769 439.431 201.762 419.588 162.65C423.762 158.429 434.854 122.074 432.024 108.331C441.372 79.549 381.319 33.8356 358.464 21.4828C252.243 -35.4759 98.3207 27.3968 50.0137 132.912C20.9847 196.457 20.4497 267.603 17.1677 335.978C16.7797 350.614 15.4347 365.364 15.4497 379.982C17.5487 392.827 27.7336 405.908 20.0126 416.589C11.4836 422.488 -5.75429 436.86 1.92071 445.01C6.41871 448.755 13.6037 446.582 18.4847 450.183C20.9697 451.573 22.5197 454.62 25.4257 455.083C51.9717 454.075 70.7042 453.989 97.3322 452.913C108.989 452.531 126.739 457.462 140.12 447.646C186.858 473.642 167.308 435.927 176.759 409.075C205.539 418.806 262.869 449.837 293.546 450.839C318.475 453.92 341.786 439.402 366.294 442.707C396.741 454.018 432.423 456.533 460.312 437.395C467.272 432.383 475.015 438.189 483.787 432.776C500.836 424.623 460.234 377.889 451.63 368.844Z" transform="translate(-20.01256 56)" fill="#FFFFFF" stroke="none"></path><path d="M277.777 0.620342C318.933 -1.94866 362.887 3.10934 399.855 22.4283C420.158 33.0373 435.851 49.0723 447.064 69.0273C453.759 80.9433 458.838 94.1383 460.762 107.704C462.738 121.643 460.418 134.072 451.518 145.152C447.983 149.552 442.029 144.637 442.9 140.135C448.228 112.591 439.586 85.3773 424.259 62.5743C402.018 29.4843 363.177 14.7853 325.36 8.22834C306.78 5.00834 287.935 3.66234 269.085 4.31734C254.714 4.81734 239.972 6.15634 226.334 10.9913C225.759 11.1953 225.53 10.2993 226.084 10.0883C242.352 3.87534 260.512 1.69834 277.777 0.620342ZM169.771 28.2817C171.042 27.6357 171.937 29.3167 170.859 30.1437C148.482 47.3047 128.442 69.0647 112.222 92.0957C82.3093 134.573 63.1253 183.727 54.2913 234.803C49.0753 264.966 47.7133 295.586 48.2343 326.151C48.4407 338.292 49.1341 350.397 49.9055 362.505L50.7763 375.927C51.1807 382.18 51.5185 388.38 51.2574 394.664L51.1863 396.116C51.059 398.363 51.0388 400.615 51.0186 402.865C50.9731 407.936 50.9277 412.991 49.6573 417.932C48.7163 421.59 43.5573 422.166 41.6893 418.973C41.3233 418.348 40.9813 417.703 40.6493 417.052C36.2713 424.192 30.6013 430.575 24.3103 436.277C27.3173 435.637 30.3533 435.229 33.4703 435.602C38.4113 436.194 42.8433 438.102 45.9793 441.446C49.0923 440.043 52.2933 439.077 55.9743 439.057C58.6853 439.043 60.7183 442.248 59.1713 444.629C56.0853 449.381 51.7793 452.045 46.8863 454.678C43.4186 456.544 39.2801 454.948 37.9996 451.258L37.9263 451.034C36.4853 446.366 28.8213 447.12 25.2053 447.842L24.1411 448.059C23.4462 448.204 22.753 448.352 22.0609 448.501C16.05 449.791 10.1294 451.062 3.98026 449.404C-0.442735 448.211 -1.59874 441.553 2.66526 439.343C16.1353 432.363 27.4433 422.987 39.0643 413.573C36.4983 407.282 35.0413 400.253 33.3613 393.856C30.9963 384.852 30.3053 375.164 29.4513 365.915C27.8283 348.33 27.2093 330.554 27.3833 312.9C27.9723 253.272 38.1703 193.459 64.2193 139.464C75.6313 115.811 90.6233 93.9237 108.344 74.5507C125.96 55.2917 146.535 40.0837 169.771 28.2817ZM344.254 65.1172C343.526 62.9382 340.934 61.5602 338.815 62.9032C332.47 66.9252 329.348 76.2452 326.028 82.6912C322.318 89.8942 318.433 96.9062 313.775 103.553C304.295 117.08 293.344 129.138 281.266 140.385C280.389 141.201 281.503 142.355 282.459 141.93C298.069 135 312.294 123.974 323.117 110.76C328.527 104.153 333.766 97.1192 337.84 89.5962C341.44 82.9482 346.822 72.7992 344.254 65.1172ZM377.805 70.9136C378.238 66.0106 371.178 65.7056 369.703 69.8166C367.532 75.8686 366.593 82.3166 364.593 88.4566C362.431 95.0936 359.693 101.519 356.429 107.689C350.034 119.781 341.956 130.622 331.995 140.007C331.59 140.389 332.177 140.931 332.592 140.604C343.682 131.865 353.605 121.46 361.379 109.649C368.705 98.5166 376.615 84.3916 377.805 70.9136ZM408.032 71.9527C409.386 67.2247 417.098 68.0297 416.779 73.1367C415.954 86.3297 409.73 99.5727 402.967 110.754C396.003 122.267 387.184 132.527 377.075 141.388C376.577 141.825 375.895 141.152 376.346 140.659C385.068 131.111 392.113 120.235 397.33 108.399C402.541 96.5797 404.508 84.2477 408.032 71.9527ZM295.882 81.7093C297.258 76.6253 290.915 73.0823 287.186 76.6463C281.149 82.4185 276.22 89.1576 271.421 95.9679L268.3 100.41C262.336 108.881 255.814 116.887 248.914 124.609C242.151 132.178 235.14 139.476 227.893 146.584C223.077 151.308 217.802 155.683 212.8 160.285C213.587 149.693 213.511 139.039 212.575 128.488C212.497 127.601 211.164 127.568 211.169 128.488C211.232 140.355 210.151 152.127 208.033 163.703C206.11 164.562 205.015 166.578 204.865 168.816C204.802 169.741 205.801 170.53 206.687 170.347C203.997 182.654 200.15 194.72 195.24 206.419C190.181 218.472 183.843 230.015 176.461 240.801C169.017 251.673 158.695 261.219 152.684 272.958C152.193 273.918 152.188 274.886 152.5 275.709C150.582 274.756 148.578 273.904 146.633 273.001L145.658 272.553C140.431 270.182 134.814 268.145 129.007 268.627C121.059 269.287 111.9 274.143 111.891 283.084C111.891 283.662 112.752 283.951 113.026 283.392C116.601 276.113 125.805 276.696 132.014 279.984C133.07 280.543 134.16 281.271 135.277 282.092C134.888 282.499 134.51 282.923 134.144 283.369C131.501 286.597 128.389 291.978 131.395 295.928C132.312 297.132 134.107 298.083 135.564 297.02C138.63 294.784 138.98 291.34 140.169 287.97C140.351 287.455 140.563 286.944 140.788 286.438C146.105 290.658 151.875 294.614 157.79 292.277C160.587 291.172 163.505 288.015 162.109 284.669C160.835 281.613 158.692 279.486 156.156 277.795C156.492 277.732 156.833 277.624 157.173 277.447C168.509 271.578 176.543 259.613 183.223 248.906L184.267 247.227C191.537 235.504 197.537 222.977 202.252 210.015C207.148 196.554 210.384 182.494 212.038 168.244C218.888 165.137 225.371 160.774 231.49 156.46L234.091 154.618C242.726 148.485 250.942 141.619 258.504 134.199C266.116 126.73 273.218 118.705 279.847 110.354C286.737 101.674 292.956 92.5293 295.882 81.7093ZM442.592 155.722C441.435 153.522 438.444 155.141 438.822 157.312C441.407 172.144 445.798 186.56 448.164 201.455C450.549 216.474 451.112 231.789 450.665 246.976C449.782 276.952 445.502 307.088 436.514 335.731C428.252 362.06 416.748 389.726 397.549 410.063C388.077 420.096 376.733 427.64 363.512 431.756C349.575 436.093 334.746 436.861 320.25 435.937C293.082 434.207 262.2 425.113 244.255 403.318C243.39 402.267 241.981 403.606 242.488 404.681C248.201 416.81 256.203 426.172 267.429 433.566C279.1 441.255 292.365 445.75 306.054 448.212C332.396 452.948 361.812 451.466 385.479 438.224C387.627 440.36 390.171 442.208 392.362 443.705C397.661 447.328 403.389 450.103 409.493 452.086C421.829 456.09 434.737 457.298 446.688 451.607C450.316 449.879 448.297 444.558 444.748 444.444C442.055 444.358 439.342 444.337 436.623 444.317C428.417 444.254 420.15 444.191 412.184 442.32C407.049 441.115 401.858 439.414 397.076 437.183C395.785 436.581 394.465 435.847 393.125 435.082L391.779 434.31C392.885 433.552 393.982 432.777 395.056 431.961C418.721 413.961 432.949 386.466 443.455 359.232L444.093 357.565C448.65 345.589 452.495 333.128 455.481 320.435C455.729 321.914 455.987 323.391 456.258 324.867C458.621 337.689 461.562 350.317 465.715 362.687C469.759 374.735 474.72 386.649 481.288 397.553C486.399 406.04 492.791 416.407 501.751 421.716C500.456 421.791 499.16 421.901 497.829 422.026C496.083 422.19 496.08 424.581 497.829 424.745C500.962 425.039 503.905 425.3 507.045 425.026C507.589 424.978 507.99 424.748 508.253 424.431C512.297 424.984 514.462 420.406 512.998 416.943C508.797 407.005 499.334 399.439 493.371 390.491C487.184 381.209 481.979 371.278 477.699 360.98C473.313 350.427 469.732 339.491 466.331 328.586C464.702 323.361 463.2 318.099 461.614 312.861L460.794 310.133C460.25 308.314 459.711 306.493 459.178 304.671L458.889 303.679C461.264 289.74 462.529 275.65 462.445 261.721C462.335 243.613 460.348 225.701 457.341 207.863C454.364 190.211 450.997 171.703 442.592 155.722ZM94.6408 265.709C103.216 246.42 130.344 229.309 148.535 247.247C148.876 247.582 148.529 248.313 148.034 248.108C136.719 243.419 122.867 249.383 115.036 257.913C108.823 264.679 105.09 273.367 104.349 282.524C103.608 291.689 105.799 301.255 111.886 308.344C115.079 312.063 119.391 315.583 124.465 316.03C127.571 316.303 130.363 315.085 133.159 313.864C134.976 313.072 136.794 312.279 138.701 311.893C142.352 311.155 145.108 313.446 145.466 317.045C146.255 324.988 138.347 330.319 131.492 331.614C124.118 333.006 116.592 331.485 110.238 327.489C89.7158 314.583 85.2888 286.748 94.6408 265.709ZM150.52 318.692C149.574 318.071 148.225 319.338 148.916 320.296C162.22 338.701 173.862 358.643 180.666 380.42C187.529 402.388 188.014 425.016 191.135 447.612C191.834 452.672 198.659 451.302 200.084 447.612C209.037 424.444 203.463 397.231 194.385 375.014C185.214 352.573 171.001 332.145 150.52 318.692ZM97.466 372.694C97.496 372.069 96.485 371.918 96.361 372.545C94.215 383.398 91.634 394.204 88.487 404.811C86.992 409.85 85.392 414.865 83.562 419.793C81.579 425.131 78.168 430.722 77.204 436.28C76.379 441.041 82.747 444.471 85.429 439.748C88.113 435.022 88.886 428.803 90.084 423.513L90.5675 421.361C91.6876 416.338 92.7467 411.301 93.655 406.236C95.647 395.123 96.919 383.972 97.466 372.694ZM133.036 393.652C133.148 393.253 133.8 393.322 133.772 393.752C133.259 401.72 132.911 409.785 131.909 417.709C131.422 421.56 130.778 425.386 130.23 429.228C129.668 433.168 129.753 437.146 127.462 440.511C124.426 444.972 116.36 443.717 116.631 437.578C116.818 433.343 118.764 430.625 120.587 426.908C121.756 424.525 122.775 422.062 123.758 419.587L125.218 415.875C128.12 408.514 130.897 401.277 133.036 393.652ZM164.657 403.855L164.896 403.61C165.828 402.597 167.218 403.272 167.663 404.341C169.087 407.766 168.841 411.671 168.603 415.434C168.537 416.485 168.471 417.524 168.443 418.539L168.419 419.554C168.322 424.265 168.389 428.678 166.253 433.027C163.659 438.308 156.824 435.028 156.295 430.33C155.835 426.251 157.276 422.24 158.673 418.352C159.032 417.354 159.388 416.364 159.708 415.382C160.703 412.33 161.428 409.156 162.941 406.386C161.647 406.609 160.355 407.056 159.172 407.379C158.642 407.522 158.442 406.744 158.948 406.564C160.904 405.872 163.112 405.352 164.657 403.855ZM438.281 418.15C437.47 417.772 436.691 418.703 437.316 419.402C444.907 427.9 456.662 432.929 467.878 433.939C472.564 434.363 472.535 427.047 467.878 426.627C457.131 425.658 448.021 422.699 438.281 418.15Z" transform="translate(-41.99957 58.00006)" fill="#000000" fill-rule="evenodd" stroke="none"></path></g></g><g transform="translate(159 186)"><g><path d="M161.26 3.75829C151.862 0.105287 135.062 -2.96371 127.162 5.02229C122.951 9.28029 125.484 15.1363 130.37 17.1713C133.516 18.4822 136.949 18.183 140.337 17.8877C141.669 17.7716 142.993 17.6562 144.29 17.6393C148.84 17.5813 153.361 18.1643 157.793 19.1723C161.357 19.9847 164.836 21.1098 168.293 22.2873L170.595 23.0773C171.32 23.3264 172.054 23.61 172.797 23.8967C175.616 24.9851 178.553 26.1192 181.532 25.5913C182.229 25.4673 182.565 24.7623 182.634 24.1453C183.089 20.0982 179.892 16.2352 177.024 13.4278L176.386 12.8144L175.972 12.4263C171.724 8.48129 166.624 5.84429 161.26 3.75829ZM33.6232 10.8211L35.7926 10.2262L38.0047 9.62924L39.5005 9.23374C49.7753 6.54436 61.1082 4.17756 71.2972 5.33309C75.0132 5.75509 78.0292 7.84609 78.5552 11.7391C78.9982 15.0241 76.8752 19.2621 73.2622 19.8461C61.2952 21.7821 49.0442 21.1541 37.0222 23.1501C31.0352 24.1431 25.0942 25.3761 19.1302 26.4871C14.5952 27.3331 9.90917 27.6301 5.33517 28.3141L6.38617 28.4601C6.75417 28.5101 6.66217 29.1291 6.29917 29.1041C4.79154 28.9536 3.28162 28.9302 1.7694 29.0359L1.12117 29.0891C0.134167 29.2281 -0.447833 28.0501 0.432167 27.4521C6.00517 23.6711 10.7342 19.5731 16.9742 16.7861C22.3712 14.3761 27.9262 12.3891 33.6232 10.8211ZM166.634 45.6655C168.478 45.1131 169.779 45.3742 171.441 46.2403C172.719 46.9059 173.589 47.9568 174.088 49.1838C174.599 50.4395 174.707 51.8878 174.454 53.2296C173.406 58.8007 170.042 63.7442 165.503 66.9282C161.091 70.0227 155.589 71.452 150.049 70.2614C146.003 69.3919 140.008 65.5531 136.85 60.8711C135.504 58.8752 134.671 56.736 134.581 54.6232C134.495 52.6084 135.008 50.5771 137.676 47.8994C137.936 47.8184 138.208 47.7747 138.477 47.7747C139.138 47.7747 139.821 48.0516 140.274 48.4513C141.469 49.502 142.312 50.8319 143.178 52.2626L143.41 52.6451C143.799 53.2818 144.2 53.9109 144.69 54.476C146.449 56.5028 149.003 58.2218 151.683 58.6693C154.167 59.0845 156.407 58.3485 158.181 56.9599C160.257 55.3353 161.713 52.8432 162.253 50.1809C162.472 49.1021 163.036 48.1297 163.818 47.3478C164.607 46.5588 165.615 45.9718 166.634 45.6655ZM49.1162 69.4299C47.1005 71.4882 44.4385 72.6496 41.0316 71.9587C38.3694 71.4193 33.3005 68.7424 29.2512 64.6199C26.481 61.7996 24.1647 58.2755 23.535 54.193C23.3888 53.2449 22.8856 52.6371 22.225 52.2543C21.7033 51.952 21.0154 51.8002 20.2661 51.876C19.6299 51.9404 18.9544 52.1708 18.4324 52.4762C17.4395 53.0572 17.0334 53.8821 16.9509 54.498C16.1543 60.4416 18.4501 66.3391 22.0288 71.3116C26.8584 78.0223 33.951 82.9399 38.1196 84.0909C45.2534 86.0617 52.7703 84.4928 58.3124 79.5277C62.7443 75.5578 65.0159 70.3856 67.1236 65.0671L67.53 64.0361C68.0041 62.8293 68.4745 61.6313 68.9729 60.4461C69.9719 58.0711 69.652 56.0181 68.6834 54.418C67.6103 52.6454 65.6296 51.3976 63.4246 51.0143C61.3865 50.6601 59.2055 51.0476 57.4838 52.2925C56.0293 53.3441 54.8564 55.0104 54.4397 57.4743C53.762 61.4809 52.1899 66.0779 49.4178 69.111L49.1162 69.4299ZM129.748 108.039C137.872 96.6602 126.366 85.9571 118.814 81.367C116.836 79.9471 118.406 75.2433 122.634 75.9703C161.031 82.5673 141.136 148.708 92.1122 112.413C86.2756 107.704 93.3436 97.3338 99.6344 101.366C99.9534 101.611 100.288 101.869 100.637 102.139C107.704 107.603 120.636 117.601 129.748 108.039ZM138.581 156.822C135.281 161.137 129.306 164.442 122.614 166.022C116.238 167.528 109.191 167.466 103.109 165.149L102.587 164.941C98.0396 163.053 93.6748 159.239 92.0173 155.26C91.3584 153.678 91.1354 152.069 91.5864 150.569C91.9921 149.219 92.9432 147.976 94.5273 146.909C95.0247 146.574 95.6918 146.55 96.3274 146.662C97.116 146.801 97.8933 147.17 98.3623 147.668C100.964 150.435 104.739 153.132 109.207 153.086C112.655 153.051 115.47 151.69 118.2 150.151L120.119 149.053C121.97 147.996 123.847 147.004 125.971 146.551C129.773 145.739 134.384 147.222 137.194 149.67C138.419 150.737 139.309 151.991 139.551 153.343C139.755 154.477 139.469 155.661 138.581 156.822Z" transform="translate(51.99983 63.00011)" fill="#000000" fill-rule="evenodd" stroke="none"></path></g></g><g transform="translate(123 338)"></g><g transform="translate(47 241)"></g></g></g></svg>